<?xml version="1.0" encoding="UTF-8" standalone="no"?>
<!DOCTYPE svg PUBLIC "-//W3C//DTD SVG 1.1//EN"
 "http://www.w3.org/Graphics/SVG/1.1/DTD/svg11.dtd">
<!-- Generated by graphviz version 2.36.0 (20140111.2315)
 -->
<!-- Title: %3 Pages: 1 -->
<svg width="4396pt" height="620pt"
 viewBox="0.00 0.00 4396.00 620.00" xmlns="http://www.w3.org/2000/svg" xmlns:xlink="http://www.w3.org/1999/xlink">
<g id="graph0" class="graph" transform="scale(1 1) rotate(0) translate(4 616)">
<title>%3</title>
<polygon fill="white" stroke="none" points="-4,4 -4,-616 4392,-616 4392,4 -4,4"/>
<!-- 1 -->
<g id="node1" class="node"><title>1</title>
<ellipse fill="none" stroke="black" cx="1062" cy="-594" rx="27" ry="18"/>
<text text-anchor="middle" x="1062" y="-590.3" font-family="Times,serif" font-size="14.00">1</text>
</g>
<!-- 1&#45;&gt;1 -->
<g id="edge1" class="edge"><title>1&#45;&gt;1</title>
<path fill="none" stroke="black" d="M1081.9,-606.432C1094.69,-609.675 1107,-605.531 1107,-594 1107,-585.622 1100.5,-581.143 1092.04,-580.564"/>
<polygon fill="black" stroke="black" points="1091.5,-577.1 1081.9,-581.568 1092.19,-584.066 1091.5,-577.1"/>
</g>
<!-- 2 -->
<g id="node2" class="node"><title>2</title>
<ellipse fill="none" stroke="black" cx="2055" cy="-522" rx="27" ry="18"/>
<text text-anchor="middle" x="2055" y="-518.3" font-family="Times,serif" font-size="14.00">2</text>
</g>
<!-- 1&#45;&gt;2 -->
<g id="edge2" class="edge"><title>1&#45;&gt;2</title>
<path fill="none" stroke="black" d="M1088.7,-590.943C1226.66,-580.821 1857.38,-536.355 2017.84,-525.43"/>
<polygon fill="black" stroke="black" points="2018.41,-528.9 2028.15,-524.731 2017.93,-521.916 2018.41,-528.9"/>
</g>
<!-- 3 -->
<g id="node3" class="node"><title>3</title>
<ellipse fill="none" stroke="black" cx="2535" cy="-234" rx="27" ry="18"/>
<text text-anchor="middle" x="2535" y="-230.3" font-family="Times,serif" font-size="14.00">3</text>
</g>
<!-- 1&#45;&gt;3 -->
<g id="edge3" class="edge"><title>1&#45;&gt;3</title>
<path fill="none" stroke="black" d="M1089.25,-592.674C1338.88,-589.603 3218,-563.296 3218,-451 3218,-451 3218,-451 3218,-377 3218,-243.144 2714.87,-234.318 2572.21,-234.622"/>
<polygon fill="black" stroke="black" points="2572.18,-231.122 2562.19,-234.66 2572.2,-238.122 2572.18,-231.122"/>
</g>
<!-- 4 -->
<g id="node4" class="node"><title>4</title>
<ellipse fill="none" stroke="black" cx="703" cy="-18" rx="27" ry="18"/>
<text text-anchor="middle" x="703" y="-14.3" font-family="Times,serif" font-size="14.00">4</text>
</g>
<!-- 1&#45;&gt;4 -->
<g id="edge4" class="edge"><title>1&#45;&gt;4</title>
<path fill="none" stroke="black" d="M1034.81,-592.441C912.234,-589.726 414.439,-576.514 356,-540 317.148,-515.724 304,-496.812 304,-451 304,-451 304,-451 304,-161 304,-84.3827 568.432,-38.4029 666.755,-23.9547"/>
<polygon fill="black" stroke="black" points="667.424,-27.3945 676.82,-22.5009 666.423,-20.4664 667.424,-27.3945"/>
</g>
<!-- 5 -->
<g id="node5" class="node"><title>5</title>
<ellipse fill="none" stroke="black" cx="893" cy="-18" rx="27" ry="18"/>
<text text-anchor="middle" x="893" y="-14.3" font-family="Times,serif" font-size="14.00">5</text>
</g>
<!-- 1&#45;&gt;5 -->
<g id="edge5" class="edge"><title>1&#45;&gt;5</title>
<path fill="none" stroke="black" d="M1035.11,-592.086C919.314,-587.977 466.591,-570.101 411,-540 366.987,-516.168 342,-501.051 342,-451 342,-451 342,-451 342,-377 342,-222.455 371.603,-142.756 509,-72 524.411,-64.0637 763.803,-34.5653 856.619,-23.3581"/>
<polygon fill="black" stroke="black" points="857.167,-26.8175 866.676,-22.1461 856.329,-19.8678 857.167,-26.8175"/>
</g>
<!-- 6 -->
<g id="node6" class="node"><title>6</title>
<ellipse fill="none" stroke="black" cx="543" cy="-18" rx="27" ry="18"/>
<text text-anchor="middle" x="543" y="-14.3" font-family="Times,serif" font-size="14.00">6</text>
</g>
<!-- 1&#45;&gt;6 -->
<g id="edge6" class="edge"><title>1&#45;&gt;6</title>
<path fill="none" stroke="black" d="M1034.82,-592.642C917.276,-590.854 452.372,-581.259 313,-540 234.602,-516.792 152,-532.761 152,-451 152,-451 152,-451 152,-161 152,-85.9188 409.932,-39.1263 506.81,-24.1993"/>
<polygon fill="black" stroke="black" points="507.376,-27.6536 516.738,-22.6947 506.327,-20.7326 507.376,-27.6536"/>
</g>
<!-- 7 -->
<g id="node7" class="node"><title>7</title>
<ellipse fill="none" stroke="black" cx="152" cy="-18" rx="27" ry="18"/>
<text text-anchor="middle" x="152" y="-14.3" font-family="Times,serif" font-size="14.00">7</text>
</g>
<!-- 1&#45;&gt;7 -->
<g id="edge7" class="edge"><title>1&#45;&gt;7</title>
<path fill="none" stroke="black" d="M1034.78,-592.876C904.286,-592.053 342.185,-585.86 174,-540 90.1972,-517.149 0,-537.862 0,-451 0,-451 0,-451 0,-161 0,-95.8986 75.3742,-52.0693 119.967,-31.8356"/>
<polygon fill="black" stroke="black" points="121.494,-34.9877 129.244,-27.7636 118.681,-28.578 121.494,-34.9877"/>
</g>
<!-- 8 -->
<g id="node8" class="node"><title>8</title>
<ellipse fill="none" stroke="black" cx="4361" cy="-522" rx="27" ry="18"/>
<text text-anchor="middle" x="4361" y="-518.3" font-family="Times,serif" font-size="14.00">8</text>
</g>
<!-- 1&#45;&gt;8 -->
<g id="edge8" class="edge"><title>1&#45;&gt;8</title>
<path fill="none" stroke="black" d="M1089.13,-592.851C1393.13,-591.149 4152.53,-574.761 4320,-540 4323.42,-539.289 4326.92,-538.297 4330.36,-537.144"/>
<polygon fill="black" stroke="black" points="4331.67,-540.39 4339.78,-533.574 4329.19,-533.844 4331.67,-540.39"/>
</g>
<!-- 9 -->
<g id="node9" class="node"><title>9</title>
<ellipse fill="none" stroke="black" cx="1753" cy="-162" rx="27" ry="18"/>
<text text-anchor="middle" x="1753" y="-158.3" font-family="Times,serif" font-size="14.00">9</text>
</g>
<!-- 1&#45;&gt;9 -->
<g id="edge9" class="edge"><title>1&#45;&gt;9</title>
<path fill="none" stroke="black" d="M1034.74,-593.591C953.841,-594.158 722,-584.971 722,-451 722,-451 722,-451 722,-377 722,-170.499 1531.44,-162.059 1715.94,-162.702"/>
<polygon fill="black" stroke="black" points="1715.95,-166.202 1725.96,-162.748 1715.98,-159.202 1715.95,-166.202"/>
</g>
<!-- 10 -->
<g id="node10" class="node"><title>10</title>
<ellipse fill="none" stroke="black" cx="1955" cy="-90" rx="27" ry="18"/>
<text text-anchor="middle" x="1955" y="-86.3" font-family="Times,serif" font-size="14.00">10</text>
</g>
<!-- 1&#45;&gt;10 -->
<g id="edge10" class="edge"><title>1&#45;&gt;10</title>
<path fill="none" stroke="black" d="M1039.65,-583.64C1001.73,-563.952 930,-514.763 930,-451 930,-451 930,-451 930,-377 930,-179.206 1611.64,-246.27 1798,-180 1846.34,-162.811 1896.18,-128.839 1926.6,-108.199"/>
<polygon fill="black" stroke="black" points="1928.7,-111.005 1935.03,-102.505 1924.78,-105.206 1928.7,-111.005"/>
</g>
<!-- 11 -->
<g id="node11" class="node"><title>11</title>
<ellipse fill="none" stroke="black" cx="4097" cy="-18" rx="27" ry="18"/>
<text text-anchor="middle" x="4097" y="-14.3" font-family="Times,serif" font-size="14.00">11</text>
</g>
<!-- 1&#45;&gt;11 -->
<g id="edge11" class="edge"><title>1&#45;&gt;11</title>
<path fill="none" stroke="black" d="M1089.1,-592.926C1366.37,-592.115 3683.77,-584.04 3986,-540 4132.08,-518.714 4306,-598.62 4306,-451 4306,-451 4306,-451 4306,-161 4306,-117.99 4299.94,-100.807 4268,-72 4230.55,-38.225 4171.89,-25.973 4133.94,-21.5289"/>
<polygon fill="black" stroke="black" points="4134.13,-18.0298 4123.82,-20.4711 4133.4,-24.9919 4134.13,-18.0298"/>
</g>
<!-- 12 -->
<g id="node12" class="node"><title>12</title>
<ellipse fill="none" stroke="black" cx="3584" cy="-18" rx="27" ry="18"/>
<text text-anchor="middle" x="3584" y="-14.3" font-family="Times,serif" font-size="14.00">12</text>
</g>
<!-- 1&#45;&gt;12 -->
<g id="edge12" class="edge"><title>1&#45;&gt;12</title>
<path fill="none" stroke="black" d="M1089.09,-592.769C1315.91,-590.774 2902.53,-575.686 3379,-540 3535.15,-528.305 4078,-607.587 4078,-451 4078,-451 4078,-451 4078,-233 4078,-132.961 3732.58,-50.5918 3619.42,-26.2919"/>
<polygon fill="black" stroke="black" points="3620.03,-22.843 3609.52,-24.1871 3618.57,-29.69 3620.03,-22.843"/>
</g>
<!-- 13 -->
<g id="node13" class="node"><title>13</title>
<ellipse fill="none" stroke="black" cx="3850" cy="-18" rx="27" ry="18"/>
<text text-anchor="middle" x="3850" y="-14.3" font-family="Times,serif" font-size="14.00">13</text>
</g>
<!-- 1&#45;&gt;13 -->
<g id="edge13" class="edge"><title>1&#45;&gt;13</title>
<path fill="none" stroke="black" d="M1089.14,-593.037C1334.54,-593.286 3173.99,-593.335 3723,-540 3950.71,-517.879 4230,-679.779 4230,-451 4230,-451 4230,-451 4230,-161 4230,-88.0256 3980.99,-40.1457 3886.12,-24.5516"/>
<polygon fill="black" stroke="black" points="3886.55,-21.0761 3876.12,-22.9343 3885.43,-27.9862 3886.55,-21.0761"/>
</g>
<!-- 14 -->
<g id="node14" class="node"><title>14</title>
<ellipse fill="none" stroke="black" cx="3432" cy="-18" rx="27" ry="18"/>
<text text-anchor="middle" x="3432" y="-14.3" font-family="Times,serif" font-size="14.00">14</text>
</g>
<!-- 1&#45;&gt;14 -->
<g id="edge14" class="edge"><title>1&#45;&gt;14</title>
<path fill="none" stroke="black" d="M1089.16,-592.986C1326.66,-592.781 3047.06,-589.584 3270,-540 3425.41,-505.436 3510.94,-529.298 3598,-396 3679.75,-270.823 3517.28,-98.6752 3454.94,-39.7523"/>
<polygon fill="black" stroke="black" points="3457.22,-37.0902 3447.52,-32.8258 3452.44,-42.2077 3457.22,-37.0902"/>
</g>
<!-- 15 -->
<g id="node15" class="node"><title>15</title>
<ellipse fill="none" stroke="black" cx="1121" cy="-18" rx="27" ry="18"/>
<text text-anchor="middle" x="1121" y="-14.3" font-family="Times,serif" font-size="14.00">15</text>
</g>
<!-- 1&#45;&gt;15 -->
<g id="edge15" class="edge"><title>1&#45;&gt;15</title>
<path fill="none" stroke="black" d="M1035.02,-592.789C920.988,-591.621 482.642,-584.264 442,-540 297.211,-382.306 384.761,-200.485 556,-72 558.659,-70.0048 958.899,-33.6598 1084.05,-22.3383"/>
<polygon fill="black" stroke="black" points="1084.63,-25.8001 1094.27,-21.4136 1084,-18.8286 1084.63,-25.8001"/>
</g>
<!-- 16 -->
<g id="node16" class="node"><title>16</title>
<ellipse fill="none" stroke="black" cx="1577" cy="-18" rx="27" ry="18"/>
<text text-anchor="middle" x="1577" y="-14.3" font-family="Times,serif" font-size="14.00">16</text>
</g>
<!-- 1&#45;&gt;16 -->
<g id="edge16" class="edge"><title>1&#45;&gt;16</title>
<path fill="none" stroke="black" d="M1035.11,-592.001C939.999,-588.197 623.584,-573.123 594,-540 497.419,-431.864 533.538,-322.426 632,-216 799.516,-34.9359 924.061,-108.6 1168,-72 1305.06,-51.4359 1468.68,-31.6691 1540.34,-23.2504"/>
<polygon fill="black" stroke="black" points="1541.11,-26.6845 1550.63,-22.045 1540.29,-19.732 1541.11,-26.6845"/>
</g>
<!-- 17 -->
<g id="node17" class="node"><title>17</title>
<ellipse fill="none" stroke="black" cx="1691" cy="-18" rx="27" ry="18"/>
<text text-anchor="middle" x="1691" y="-14.3" font-family="Times,serif" font-size="14.00">17</text>
</g>
<!-- 1&#45;&gt;17 -->
<g id="edge17" class="edge"><title>1&#45;&gt;17</title>
<path fill="none" stroke="black" d="M1035.3,-590.526C937.978,-580.787 608,-541.121 608,-451 608,-451 608,-451 608,-377 608,-187.855 1168.24,-128.899 1420,-72 1505.11,-52.7641 1527.47,-53.2927 1613,-36 1627.07,-33.1546 1642.53,-29.8283 1655.94,-26.8762"/>
<polygon fill="black" stroke="black" points="1656.74,-30.2845 1665.75,-24.7058 1655.23,-23.45 1656.74,-30.2845"/>
</g>
<!-- 18 -->
<g id="node18" class="node"><title>18</title>
<ellipse fill="none" stroke="black" cx="2503" cy="-18" rx="27" ry="18"/>
<text text-anchor="middle" x="2503" y="-14.3" font-family="Times,serif" font-size="14.00">18</text>
</g>
<!-- 1&#45;&gt;18 -->
<g id="edge18" class="edge"><title>1&#45;&gt;18</title>
<path fill="none" stroke="black" d="M1089.04,-592.95C1360.47,-592.28 3584,-582.768 3584,-451 3584,-451 3584,-451 3584,-161 3584,-51.3915 3461.07,-95.4602 3354,-72 3195.3,-37.2261 2683.08,-23.1193 2540.27,-19.8041"/>
<polygon fill="black" stroke="black" points="2540.34,-16.3046 2530.26,-19.5753 2540.18,-23.3028 2540.34,-16.3046"/>
</g>
<!-- 19 -->
<g id="node19" class="node"><title>19</title>
<ellipse fill="none" stroke="black" cx="2199" cy="-18" rx="27" ry="18"/>
<text text-anchor="middle" x="2199" y="-14.3" font-family="Times,serif" font-size="14.00">19</text>
</g>
<!-- 1&#45;&gt;19 -->
<g id="edge19" class="edge"><title>1&#45;&gt;19</title>
<path fill="none" stroke="black" d="M1089.16,-592.866C1288.12,-591.784 2523.25,-583.385 2895,-540 3052.31,-521.641 3138.95,-586.52 3244,-468 3300.22,-404.572 3252.36,-333.735 3181,-288 3098.64,-235.213 2859.54,-169.128 2765,-144 2681.51,-121.812 2658.49,-125.979 2574,-108 2448.2,-81.2313 2299.9,-44.4854 2233.81,-27.8364"/>
<polygon fill="black" stroke="black" points="2234.48,-24.3951 2223.92,-25.3415 2232.76,-31.1823 2234.48,-24.3951"/>
</g>
<!-- 2&#45;&gt;1 -->
<g id="edge20" class="edge"><title>2&#45;&gt;1</title>
<path fill="none" stroke="black" d="M2028.24,-525.062C1890.14,-535.193 1259.55,-579.65 1099.14,-590.571"/>
<polygon fill="black" stroke="black" points="1098.58,-587.101 1088.84,-591.27 1099.05,-594.085 1098.58,-587.101"/>
</g>
<!-- 2&#45;&gt;2 -->
<g id="edge21" class="edge"><title>2&#45;&gt;2</title>
<path fill="none" stroke="black" d="M2074.9,-534.432C2087.69,-537.675 2100,-533.531 2100,-522 2100,-513.622 2093.5,-509.143 2085.04,-508.564"/>
<polygon fill="black" stroke="black" points="2084.5,-505.1 2074.9,-509.568 2085.19,-512.066 2084.5,-505.1"/>
</g>
<!-- 2&#45;&gt;3 -->
<g id="edge22" class="edge"><title>2&#45;&gt;3</title>
<path fill="none" stroke="black" d="M2082,-520.433C2230.39,-517.331 2939.52,-501.33 2971,-468 3003.96,-433.102 2999.99,-398.256 2971,-360 2921.42,-294.578 2666.89,-253.89 2571.24,-240.185"/>
<polygon fill="black" stroke="black" points="2571.56,-236.696 2561.17,-238.757 2570.58,-243.627 2571.56,-236.696"/>
</g>
<!-- 2&#45;&gt;4 -->
<g id="edge23" class="edge"><title>2&#45;&gt;4</title>
<path fill="none" stroke="black" d="M2027.82,-520.705C1875.83,-518.914 1130,-508.179 904,-468 799.375,-449.399 756.049,-465.89 676,-396 573.294,-306.328 655.096,-113.864 689.556,-44.5425"/>
<polygon fill="black" stroke="black" points="692.874,-45.7377 694.269,-35.2351 686.629,-42.5753 692.874,-45.7377"/>
</g>
<!-- 2&#45;&gt;5 -->
<g id="edge24" class="edge"><title>2&#45;&gt;5</title>
<path fill="none" stroke="black" d="M2027.76,-521.493C1921.03,-522.965 1521.34,-524.186 1199,-468 1072.91,-446.022 646,-434.991 646,-307 646,-307 646,-307 646,-233 646,-121.557 791.404,-55.147 859.088,-30.2706"/>
<polygon fill="black" stroke="black" points="860.633,-33.4349 868.867,-26.7674 858.272,-26.8449 860.633,-33.4349"/>
</g>
<!-- 2&#45;&gt;6 -->
<g id="edge25" class="edge"><title>2&#45;&gt;6</title>
<path fill="none" stroke="black" d="M2028.01,-521.022C1850.07,-521.027 848.849,-518.781 724,-468 522.944,-386.222 439.058,-320.323 394,-108 390.679,-92.3486 384.775,-85.0728 394,-72 419.106,-36.4231 470.29,-24.5857 505.605,-20.7282"/>
<polygon fill="black" stroke="black" points="506.373,-24.1724 516.009,-19.7698 505.73,-17.2019 506.373,-24.1724"/>
</g>
<!-- 2&#45;&gt;7 -->
<g id="edge26" class="edge"><title>2&#45;&gt;7</title>
<path fill="none" stroke="black" d="M2027.91,-520.741C1843.63,-518.878 777.51,-506.492 639,-468 447.717,-414.843 401.068,-378.431 248,-252 190.171,-204.235 177.119,-181.025 160,-108 155.25,-87.7368 153.281,-64.2696 152.483,-46.5214"/>
<polygon fill="black" stroke="black" points="155.973,-46.1602 152.124,-36.2894 148.977,-46.4063 155.973,-46.1602"/>
</g>
<!-- 2&#45;&gt;9 -->
<g id="edge27" class="edge"><title>2&#45;&gt;9</title>
<path fill="none" stroke="black" d="M2028.31,-518.004C1910.49,-503.424 1440.5,-436.005 1356,-324 1261.44,-198.666 1600.3,-170.273 1715.85,-164.411"/>
<polygon fill="black" stroke="black" points="1716.17,-167.9 1726,-163.926 1715.84,-160.908 1716.17,-167.9"/>
</g>
<!-- 2&#45;&gt;10 -->
<g id="edge28" class="edge"><title>2&#45;&gt;10</title>
<path fill="none" stroke="black" d="M2082.29,-521.468C2193.82,-522.83 2613.29,-523.638 2732,-468 2783.79,-443.724 2835.45,-406.403 2802,-360 2794.6,-349.739 2382.35,-218.733 2370,-216 2232.42,-185.556 2184.83,-234.777 2055,-180 2020.42,-165.412 1988.1,-136.286 1969.71,-115.322"/>
<polygon fill="black" stroke="black" points="1972.25,-112.898 1963.16,-107.458 1966.87,-117.38 1972.25,-112.898"/>
</g>
<!-- 2&#45;&gt;11 -->
<g id="edge29" class="edge"><title>2&#45;&gt;11</title>
<path fill="none" stroke="black" d="M2082.42,-521.206C2216.7,-521.93 2818.28,-521.861 3307,-468 3487.42,-448.116 3532.22,-437.172 3709,-396 3960.8,-337.354 4268,-493.544 4268,-235 4268,-235 4268,-235 4268,-161 4268,-120.031 4271.75,-102.141 4244,-72 4215.4,-40.9328 4167.23,-28.0511 4133.87,-22.7257"/>
<polygon fill="black" stroke="black" points="4134,-19.2081 4123.6,-21.2488 4133,-26.1368 4134,-19.2081"/>
</g>
<!-- 2&#45;&gt;12 -->
<g id="edge30" class="edge"><title>2&#45;&gt;12</title>
<path fill="none" stroke="black" d="M2081.95,-520.648C2238.08,-518.477 3022.96,-505.746 3123,-468 3347.45,-383.308 3519.71,-124.804 3569.42,-43.6476"/>
<polygon fill="black" stroke="black" points="3572.42,-45.4404 3574.61,-35.0747 3566.44,-41.8114 3572.42,-45.4404"/>
</g>
<!-- 2&#45;&gt;13 -->
<g id="edge31" class="edge"><title>2&#45;&gt;13</title>
<path fill="none" stroke="black" d="M2082.39,-520.736C2232.28,-519.136 2954.39,-509.37 3173,-468 3573.3,-392.249 3804.13,-455.973 4016,-108 4047.85,-55.6987 3944.28,-32.2917 3886.37,-23.4921"/>
<polygon fill="black" stroke="black" points="3886.87,-20.028 3876.47,-22.062 3885.87,-26.956 3886.87,-20.028"/>
</g>
<!-- 2&#45;&gt;14 -->
<g id="edge32" class="edge"><title>2&#45;&gt;14</title>
<path fill="none" stroke="black" d="M2081.89,-520.107C2238.31,-514.845 3025.87,-487.464 3073,-468 3250.16,-394.838 3267.82,-324.283 3394,-180 3419.48,-150.862 3431.61,-144.993 3443,-108 3449.28,-87.6015 3445.68,-63.5269 3440.98,-45.5635"/>
<polygon fill="black" stroke="black" points="3444.29,-44.4038 3438.15,-35.767 3437.56,-46.3455 3444.29,-44.4038"/>
</g>
<!-- 2&#45;&gt;15 -->
<g id="edge33" class="edge"><title>2&#45;&gt;15</title>
<path fill="none" stroke="black" d="M2028.07,-520.714C1909.47,-519.215 1433.34,-510.604 1291,-468 1167.1,-430.915 1112.64,-380.259 1096,-252 1086.33,-177.455 1103.64,-89.1426 1114.02,-45.7667"/>
<polygon fill="black" stroke="black" points="1117.44,-46.5336 1116.43,-35.9868 1110.64,-44.86 1117.44,-46.5336"/>
</g>
<!-- 2&#45;&gt;16 -->
<g id="edge34" class="edge"><title>2&#45;&gt;16</title>
<path fill="none" stroke="black" d="M2027.78,-520.163C1898.7,-515.723 1348.84,-491.409 1212,-396 1146.81,-350.549 1130.79,-327.503 1106,-252 1044.87,-65.8478 1417.81,-28.0466 1539.52,-20.6988"/>
<polygon fill="black" stroke="black" points="1540.05,-24.1745 1549.84,-20.1135 1539.66,-17.1857 1540.05,-24.1745"/>
</g>
<!-- 2&#45;&gt;17 -->
<g id="edge35" class="edge"><title>2&#45;&gt;17</title>
<path fill="none" stroke="black" d="M2027.85,-520.426C1955.15,-518.356 1750.37,-509.03 1586,-468 1501.6,-446.932 1475.08,-446.142 1404,-396 1369.25,-371.49 1356.23,-363.699 1341,-324 1294.47,-202.732 1371.24,-126.81 1489,-72 1518.54,-58.2521 1606.15,-37.6868 1655.75,-26.6513"/>
<polygon fill="black" stroke="black" points="1656.71,-30.0231 1665.72,-24.447 1655.2,-23.1882 1656.71,-30.0231"/>
</g>
<!-- 2&#45;&gt;18 -->
<g id="edge36" class="edge"><title>2&#45;&gt;18</title>
<path fill="none" stroke="black" d="M2082.15,-520.279C2236.62,-516.088 2999.21,-494.125 3041,-468 3109.3,-425.306 3104.17,-356.619 3062,-288 3058.85,-282.871 2905.48,-146.491 2900,-144 2784.57,-91.5382 2731.93,-161.543 2617,-108 2595.62,-98.0385 2596.34,-86.8382 2578,-72 2562.71,-59.625 2544.73,-46.8664 2530.21,-36.969"/>
<polygon fill="black" stroke="black" points="2531.92,-33.8995 2521.68,-31.2053 2528.01,-39.7013 2531.92,-33.8995"/>
</g>
<!-- 2&#45;&gt;19 -->
<g id="edge37" class="edge"><title>2&#45;&gt;19</title>
<path fill="none" stroke="black" d="M2082.12,-520.539C2234.65,-517.814 2980.12,-502.748 3013,-468 3190.24,-280.684 2922.28,-229.577 2702,-144 2589.15,-100.16 2547.07,-145.616 2432,-108 2400.24,-97.6179 2396.73,-85.1141 2366,-72 2321.63,-53.0662 2268.14,-37.2508 2233.86,-27.9567"/>
<polygon fill="black" stroke="black" points="2234.44,-24.4873 2223.87,-25.2854 2232.63,-31.2498 2234.44,-24.4873"/>
</g>
<!-- 21 -->
<g id="node21" class="node"><title>21</title>
<ellipse fill="none" stroke="black" cx="2149" cy="-234" rx="27" ry="18"/>
<text text-anchor="middle" x="2149" y="-230.3" font-family="Times,serif" font-size="14.00">21</text>
</g>
<!-- 2&#45;&gt;21 -->
<g id="edge38" class="edge"><title>2&#45;&gt;21</title>
<path fill="none" stroke="black" d="M2060.6,-503.966C2076.37,-455.979 2121.26,-319.414 2140.29,-261.491"/>
<polygon fill="black" stroke="black" points="2143.63,-262.538 2143.43,-251.945 2136.98,-260.352 2143.63,-262.538"/>
</g>
<!-- 22 -->
<g id="node22" class="node"><title>22</title>
<ellipse fill="none" stroke="black" cx="1991" cy="-378" rx="27" ry="18"/>
<text text-anchor="middle" x="1991" y="-374.3" font-family="Times,serif" font-size="14.00">22</text>
</g>
<!-- 2&#45;&gt;22 -->
<g id="edge39" class="edge"><title>2&#45;&gt;22</title>
<path fill="none" stroke="black" d="M2043.63,-505.533C2030.1,-481.614 2008.91,-435.337 1997.69,-405.868"/>
<polygon fill="black" stroke="black" points="2000.88,-404.405 1994.16,-396.21 1994.3,-406.804 2000.88,-404.405"/>
</g>
<!-- 23 -->
<g id="node23" class="node"><title>23</title>
<ellipse fill="none" stroke="black" cx="2221" cy="-234" rx="27" ry="18"/>
<text text-anchor="middle" x="2221" y="-230.3" font-family="Times,serif" font-size="14.00">23</text>
</g>
<!-- 2&#45;&gt;23 -->
<g id="edge40" class="edge"><title>2&#45;&gt;23</title>
<path fill="none" stroke="black" d="M2082.12,-520.732C2202.36,-518.922 2685.35,-504.88 2777,-396 2787.3,-383.759 2787.47,-372.096 2777,-360 2740.4,-317.733 2582.78,-335.197 2528,-324 2405.9,-299.042 2374.05,-294.783 2257,-252 2255.15,-251.324 2253.27,-250.587 2251.38,-249.813"/>
<polygon fill="black" stroke="black" points="2252.61,-246.532 2242.05,-245.72 2249.8,-252.942 2252.61,-246.532"/>
</g>
<!-- 24 -->
<g id="node24" class="node"><title>24</title>
<ellipse fill="none" stroke="black" cx="1861" cy="-306" rx="27" ry="18"/>
<text text-anchor="middle" x="1861" y="-302.3" font-family="Times,serif" font-size="14.00">24</text>
</g>
<!-- 2&#45;&gt;24 -->
<g id="edge41" class="edge"><title>2&#45;&gt;24</title>
<path fill="none" stroke="black" d="M2039.05,-507.288C2002.71,-471.595 1915.27,-375.467 1878,-330.63"/>
<polygon fill="black" stroke="black" points="1880.69,-328.396 1871.64,-322.881 1875.28,-332.833 1880.69,-328.396"/>
</g>
<!-- 25 -->
<g id="node25" class="node"><title>25</title>
<ellipse fill="none" stroke="black" cx="2293" cy="-234" rx="27" ry="18"/>
<text text-anchor="middle" x="2293" y="-230.3" font-family="Times,serif" font-size="14.00">25</text>
</g>
<!-- 2&#45;&gt;25 -->
<g id="edge42" class="edge"><title>2&#45;&gt;25</title>
<path fill="none" stroke="black" d="M2082.25,-520.551C2188.35,-518.523 2573.64,-508.466 2688,-468 2741.69,-449.002 2767.34,-446.328 2794,-396 2801.49,-381.861 2803.92,-372.55 2794,-360 2750.94,-305.546 2709.42,-340.578 2642,-324 2526.68,-295.641 2390.37,-260.374 2327.7,-244.058"/>
<polygon fill="black" stroke="black" points="2328.49,-240.648 2317.93,-241.514 2326.73,-247.422 2328.49,-240.648"/>
</g>
<!-- 26 -->
<g id="node26" class="node"><title>26</title>
<ellipse fill="none" stroke="black" cx="2247" cy="-450" rx="27" ry="18"/>
<text text-anchor="middle" x="2247" y="-446.3" font-family="Times,serif" font-size="14.00">26</text>
</g>
<!-- 2&#45;&gt;26 -->
<g id="edge43" class="edge"><title>2&#45;&gt;26</title>
<path fill="none" stroke="black" d="M2076.85,-511.267C2110.28,-498.169 2173.89,-474.963 2213.24,-461.489"/>
<polygon fill="black" stroke="black" points="2214.59,-464.73 2222.94,-458.205 2212.34,-458.1 2214.59,-464.73"/>
</g>
<!-- 3&#45;&gt;1 -->
<g id="edge44" class="edge"><title>3&#45;&gt;1</title>
<path fill="none" stroke="black" d="M2562.35,-234.695C2691.9,-233.812 3236,-237.801 3236,-377 3236,-451 3236,-451 3236,-451 3236,-562.394 1386.97,-589.174 1099.37,-592.596"/>
<polygon fill="black" stroke="black" points="1099.02,-589.099 1089.06,-592.716 1099.1,-596.099 1099.02,-589.099"/>
</g>
<!-- 3&#45;&gt;2 -->
<g id="edge45" class="edge"><title>3&#45;&gt;2</title>
<path fill="none" stroke="black" d="M2561.45,-237.837C2650.62,-248.659 2936.17,-290.287 2989,-360 3017.99,-398.256 3021.96,-433.102 2989,-468 2957.85,-500.988 2262.87,-517.001 2092.42,-520.333"/>
<polygon fill="black" stroke="black" points="2092.12,-516.838 2082.19,-520.53 2092.25,-523.837 2092.12,-516.838"/>
</g>
<!-- 3&#45;&gt;3 -->
<g id="edge46" class="edge"><title>3&#45;&gt;3</title>
<path fill="none" stroke="black" d="M2554.9,-246.432C2567.69,-249.675 2580,-245.531 2580,-234 2580,-225.622 2573.5,-221.143 2565.04,-220.564"/>
<polygon fill="black" stroke="black" points="2564.5,-217.1 2554.9,-221.568 2565.19,-224.066 2564.5,-217.1"/>
</g>
<!-- 3&#45;&gt;4 -->
<g id="edge47" class="edge"><title>3&#45;&gt;4</title>
<path fill="none" stroke="black" d="M2508.36,-230.422C2469.13,-226.711 2393.48,-219.885 2329,-216 1909.01,-190.692 1799.91,-236.737 1383,-180 1130.77,-145.673 835.192,-59.4589 736.771,-29.4742"/>
<polygon fill="black" stroke="black" points="737.659,-26.086 727.073,-26.5068 735.611,-32.7796 737.659,-26.086"/>
</g>
<!-- 3&#45;&gt;5 -->
<g id="edge48" class="edge"><title>3&#45;&gt;5</title>
<path fill="none" stroke="black" d="M2508.36,-230.505C2469.11,-226.898 2393.46,-220.199 2329,-216 1994.66,-194.219 1907.79,-226.633 1576,-180 1322.87,-144.422 1025.85,-59.0075 926.94,-29.352"/>
<polygon fill="black" stroke="black" points="927.779,-25.9493 917.194,-26.4177 925.761,-32.6521 927.779,-25.9493"/>
</g>
<!-- 3&#45;&gt;6 -->
<g id="edge49" class="edge"><title>3&#45;&gt;6</title>
<path fill="none" stroke="black" d="M2508.36,-230.364C2469.13,-226.581 2393.49,-219.666 2329,-216 1817.58,-186.926 1684.59,-248.906 1177,-180 1042.84,-161.788 1012.25,-141.239 881,-108 769.787,-79.8347 638.489,-44.7286 577.431,-28.2956"/>
<polygon fill="black" stroke="black" points="578.123,-24.8573 567.557,-25.636 576.302,-31.6164 578.123,-24.8573"/>
</g>
<!-- 3&#45;&gt;7 -->
<g id="edge50" class="edge"><title>3&#45;&gt;7</title>
<path fill="none" stroke="black" d="M2508.37,-230.33C2469.14,-226.504 2393.5,-219.537 2329,-216 1742.11,-183.817 1591.43,-242.582 1007,-180 684.809,-145.499 302.2,-55.7626 186.683,-27.5916"/>
<polygon fill="black" stroke="black" points="187.508,-24.1903 176.963,-25.2123 185.844,-30.9895 187.508,-24.1903"/>
</g>
<!-- 3&#45;&gt;9 -->
<g id="edge51" class="edge"><title>3&#45;&gt;9</title>
<path fill="none" stroke="black" d="M2508.23,-230.857C2472.41,-227.557 2407.84,-221.081 2353,-216 2139.57,-196.227 1883.85,-174.665 1789.83,-166.444"/>
<polygon fill="black" stroke="black" points="1789.96,-162.942 1779.7,-165.554 1789.35,-169.915 1789.96,-162.942"/>
</g>
<!-- 3&#45;&gt;10 -->
<g id="edge52" class="edge"><title>3&#45;&gt;10</title>
<path fill="none" stroke="black" d="M2509.06,-228.486C2491.3,-224.761 2467.75,-219.531 2447,-216 2320.7,-194.504 2284.85,-212.793 2161,-180 2094.4,-162.365 2021.11,-128.727 1982.27,-108.235"/>
<polygon fill="black" stroke="black" points="1983.63,-104.989 1973.16,-103.326 1980.31,-111.151 1983.63,-104.989"/>
</g>
<!-- 3&#45;&gt;11 -->
<g id="edge53" class="edge"><title>3&#45;&gt;11</title>
<path fill="none" stroke="black" d="M2562.04,-232.537C2662.99,-230.521 3027.14,-220.686 3324,-180 3612.46,-140.464 3954.37,-55.7049 4062.47,-27.9796"/>
<polygon fill="black" stroke="black" points="4063.38,-31.3597 4072.19,-25.4779 4061.64,-24.5805 4063.38,-31.3597"/>
</g>
<!-- 3&#45;&gt;12 -->
<g id="edge54" class="edge"><title>3&#45;&gt;12</title>
<path fill="none" stroke="black" d="M2562.2,-232.841C2648.72,-231.871 2925,-225.188 3148,-180 3249.66,-159.4 3272.7,-143.945 3370,-108 3435.87,-83.6668 3511.38,-51.1514 3552.78,-32.9164"/>
<polygon fill="black" stroke="black" points="3554.32,-36.0607 3562.05,-28.8176 3551.49,-29.6578 3554.32,-36.0607"/>
</g>
<!-- 3&#45;&gt;13 -->
<g id="edge55" class="edge"><title>3&#45;&gt;13</title>
<path fill="none" stroke="black" d="M2562.13,-232.614C2655.06,-230.933 2968.94,-222.275 3224,-180 3454.22,-141.842 3723.49,-59.4387 3816.45,-29.852"/>
<polygon fill="black" stroke="black" points="3817.69,-33.1302 3826.15,-26.7524 3815.56,-26.4623 3817.69,-33.1302"/>
</g>
<!-- 3&#45;&gt;14 -->
<g id="edge56" class="edge"><title>3&#45;&gt;14</title>
<path fill="none" stroke="black" d="M2561.76,-230.437C2649.25,-221.997 2926.3,-194.767 3015,-180 3159.65,-155.916 3207.36,-176.548 3337,-108 3345.51,-103.5 3384.77,-65.5695 3410.08,-40.6992"/>
<polygon fill="black" stroke="black" points="3412.77,-42.9626 3417.44,-33.4516 3407.86,-37.9756 3412.77,-42.9626"/>
</g>
<!-- 3&#45;&gt;15 -->
<g id="edge57" class="edge"><title>3&#45;&gt;15</title>
<path fill="none" stroke="black" d="M2508.35,-230.599C2469.1,-227.108 2393.43,-220.553 2329,-216 2057.21,-196.794 1985.93,-223.758 1717,-180 1659.76,-170.686 1273.27,-62.0341 1155.19,-28.6777"/>
<polygon fill="black" stroke="black" points="1156.14,-25.3091 1145.57,-25.9574 1154.24,-32.0452 1156.14,-25.3091"/>
</g>
<!-- 3&#45;&gt;16 -->
<g id="edge58" class="edge"><title>3&#45;&gt;16</title>
<path fill="none" stroke="black" d="M2509.82,-227.162C2494.34,-223.678 2474.08,-219.303 2456,-216 2350.33,-196.691 2319.16,-213.2 2217,-180 2167.47,-163.903 2058.9,-86.8993 2009,-72 1857.46,-26.7584 1811.18,-60.8783 1655,-36 1640.71,-33.724 1625.11,-30.4774 1611.63,-27.4302"/>
<polygon fill="black" stroke="black" points="1612.34,-24.0002 1601.8,-25.1583 1610.76,-30.8204 1612.34,-24.0002"/>
</g>
<!-- 3&#45;&gt;17 -->
<g id="edge59" class="edge"><title>3&#45;&gt;17</title>
<path fill="none" stroke="black" d="M2509.75,-227.491C2494.25,-224.128 2473.99,-219.765 2456,-216 2377.43,-199.556 2353.07,-210.948 2279,-180 2199.5,-146.783 2198.73,-102.126 2118,-72 2046.64,-45.3696 1818.02,-27.5349 1727.96,-21.3812"/>
<polygon fill="black" stroke="black" points="1728.14,-17.8858 1717.93,-20.7053 1727.67,-24.87 1728.14,-17.8858"/>
</g>
<!-- 3&#45;&gt;18 -->
<g id="edge60" class="edge"><title>3&#45;&gt;18</title>
<path fill="none" stroke="black" d="M2561.91,-231.692C2595.32,-228.453 2651.04,-217.397 2677,-180 2686.12,-166.856 2687.3,-156.245 2677,-144 2616.89,-72.5364 2530.11,-179.464 2470,-108 2453.92,-88.8847 2468.45,-61.2058 2482.98,-41.8047"/>
<polygon fill="black" stroke="black" points="2485.86,-43.8014 2489.33,-33.79 2480.38,-39.454 2485.86,-43.8014"/>
</g>
<!-- 3&#45;&gt;19 -->
<g id="edge61" class="edge"><title>3&#45;&gt;19</title>
<path fill="none" stroke="black" d="M2512.97,-223.569C2506.86,-221.033 2500.2,-218.345 2494,-216 2447.86,-198.544 2431.2,-205.547 2389,-180 2369.1,-167.952 2368.44,-159.398 2351,-144 2307.22,-105.347 2254.14,-62.5838 2223.7,-38.4313"/>
<polygon fill="black" stroke="black" points="2225.75,-35.5929 2215.74,-32.1314 2221.41,-41.0819 2225.75,-35.5929"/>
</g>
<!-- 27 -->
<g id="node27" class="node"><title>27</title>
<ellipse fill="none" stroke="black" cx="2425" cy="-162" rx="27" ry="18"/>
<text text-anchor="middle" x="2425" y="-158.3" font-family="Times,serif" font-size="14.00">27</text>
</g>
<!-- 3&#45;&gt;27 -->
<g id="edge62" class="edge"><title>3&#45;&gt;27</title>
<path fill="none" stroke="black" d="M2515.84,-220.807C2498.33,-209.665 2472.24,-193.062 2452.51,-180.504"/>
<polygon fill="black" stroke="black" points="2454.26,-177.469 2443.94,-175.053 2450.5,-183.375 2454.26,-177.469"/>
</g>
<!-- 28 -->
<g id="node28" class="node"><title>28</title>
<ellipse fill="none" stroke="black" cx="2497" cy="-162" rx="27" ry="18"/>
<text text-anchor="middle" x="2497" y="-158.3" font-family="Times,serif" font-size="14.00">28</text>
</g>
<!-- 3&#45;&gt;28 -->
<g id="edge63" class="edge"><title>3&#45;&gt;28</title>
<path fill="none" stroke="black" d="M2526.19,-216.765C2521.58,-208.283 2515.84,-197.714 2510.68,-188.197"/>
<polygon fill="black" stroke="black" points="2513.61,-186.266 2505.77,-179.147 2507.46,-189.606 2513.61,-186.266"/>
</g>
<!-- 29 -->
<g id="node29" class="node"><title>29</title>
<ellipse fill="none" stroke="black" cx="2979" cy="-162" rx="27" ry="18"/>
<text text-anchor="middle" x="2979" y="-158.3" font-family="Times,serif" font-size="14.00">29</text>
</g>
<!-- 3&#45;&gt;29 -->
<g id="edge64" class="edge"><title>3&#45;&gt;29</title>
<path fill="none" stroke="black" d="M2561.12,-228.883C2636.76,-216.956 2856.16,-182.366 2943,-168.675"/>
<polygon fill="black" stroke="black" points="2943.58,-172.127 2952.92,-167.112 2942.49,-165.212 2943.58,-172.127"/>
</g>
<!-- 30 -->
<g id="node30" class="node"><title>30</title>
<ellipse fill="none" stroke="black" cx="2569" cy="-162" rx="27" ry="18"/>
<text text-anchor="middle" x="2569" y="-158.3" font-family="Times,serif" font-size="14.00">30</text>
</g>
<!-- 3&#45;&gt;30 -->
<g id="edge65" class="edge"><title>3&#45;&gt;30</title>
<path fill="none" stroke="black" d="M2542.89,-216.765C2546.9,-208.491 2551.89,-198.232 2556.42,-188.9"/>
<polygon fill="black" stroke="black" points="2559.7,-190.158 2560.92,-179.633 2553.4,-187.099 2559.7,-190.158"/>
</g>
<!-- 31 -->
<g id="node31" class="node"><title>31</title>
<ellipse fill="none" stroke="black" cx="2641" cy="-162" rx="27" ry="18"/>
<text text-anchor="middle" x="2641" y="-158.3" font-family="Times,serif" font-size="14.00">31</text>
</g>
<!-- 3&#45;&gt;31 -->
<g id="edge66" class="edge"><title>3&#45;&gt;31</title>
<path fill="none" stroke="black" d="M2553.46,-220.807C2570.16,-209.783 2594.95,-193.413 2613.89,-180.904"/>
<polygon fill="black" stroke="black" points="2615.98,-183.72 2622.39,-175.288 2612.12,-177.878 2615.98,-183.72"/>
</g>
<!-- 32 -->
<g id="node32" class="node"><title>32</title>
<ellipse fill="none" stroke="black" cx="2315" cy="-162" rx="27" ry="18"/>
<text text-anchor="middle" x="2315" y="-158.3" font-family="Times,serif" font-size="14.00">32</text>
</g>
<!-- 3&#45;&gt;32 -->
<g id="edge67" class="edge"><title>3&#45;&gt;32</title>
<path fill="none" stroke="black" d="M2513.08,-223.259C2506.97,-220.722 2500.28,-218.11 2494,-216 2433.91,-195.813 2416.09,-200.187 2356,-180 2352.86,-178.945 2349.62,-177.764 2346.4,-176.531"/>
<polygon fill="black" stroke="black" points="2347.5,-173.204 2336.92,-172.741 2344.9,-179.704 2347.5,-173.204"/>
</g>
<!-- 9&#45;&gt;1 -->
<g id="edge68" class="edge"><title>9&#45;&gt;1</title>
<path fill="none" stroke="black" d="M1725.99,-162.723C1564.95,-161.916 740,-168.53 740,-377 740,-451 740,-451 740,-451 740,-575.278 939.508,-592.175 1024.53,-593.517"/>
<polygon fill="black" stroke="black" points="1024.75,-597.02 1034.79,-593.612 1024.82,-590.02 1024.75,-597.02"/>
</g>
<!-- 9&#45;&gt;2 -->
<g id="edge69" class="edge"><title>9&#45;&gt;2</title>
<path fill="none" stroke="black" d="M1725.96,-164.256C1624.54,-169.761 1278.58,-197.518 1374,-324 1454.91,-431.25 1889.28,-497.619 2018.69,-515.862"/>
<polygon fill="black" stroke="black" points="2018.48,-519.366 2028.87,-517.286 2019.45,-512.434 2018.48,-519.366"/>
</g>
<!-- 9&#45;&gt;3 -->
<g id="edge70" class="edge"><title>9&#45;&gt;3</title>
<path fill="none" stroke="black" d="M1779.83,-164.929C1866.11,-171.66 2142.74,-194.853 2371,-216 2414.93,-220.07 2465.1,-225.035 2498.38,-228.545"/>
<polygon fill="black" stroke="black" points="2498.25,-232.051 2508.56,-229.631 2498.99,-225.091 2498.25,-232.051"/>
</g>
<!-- 9&#45;&gt;4 -->
<g id="edge71" class="edge"><title>9&#45;&gt;4</title>
<path fill="none" stroke="black" d="M1726.15,-158.991C1656,-153.498 1461.65,-136.688 1302,-108 1235.37,-96.0274 1220.63,-83.9726 1154,-72 1113.53,-64.7281 839.519,-34.1119 739.473,-23.0275"/>
<polygon fill="black" stroke="black" points="739.847,-19.5477 729.522,-21.926 739.077,-26.5052 739.847,-19.5477"/>
</g>
<!-- 9&#45;&gt;5 -->
<g id="edge72" class="edge"><title>9&#45;&gt;5</title>
<path fill="none" stroke="black" d="M1726.9,-156.942C1674.81,-148.72 1554.35,-129.076 1454,-108 1387.75,-94.0854 1372.56,-84.3273 1306,-72 1168.13,-46.4674 1002.1,-29.2003 929.718,-22.3307"/>
<polygon fill="black" stroke="black" points="930.017,-18.8435 919.734,-21.3929 929.363,-25.8128 930.017,-18.8435"/>
</g>
<!-- 9&#45;&gt;6 -->
<g id="edge73" class="edge"><title>9&#45;&gt;6</title>
<path fill="none" stroke="black" d="M1725.84,-160.692C1640.66,-159.28 1371.55,-151.436 1154,-108 1101.9,-97.597 1092.06,-82.6104 1040,-72 876.807,-38.741 832.424,-55.3147 667,-36 637.351,-32.5382 603.815,-27.8964 579.102,-24.3379"/>
<polygon fill="black" stroke="black" points="579.487,-20.8571 569.088,-22.8857 578.482,-27.7847 579.487,-20.8571"/>
</g>
<!-- 9&#45;&gt;7 -->
<g id="edge74" class="edge"><title>9&#45;&gt;7</title>
<path fill="none" stroke="black" d="M1726.11,-159.251C1631.81,-153.066 1307.41,-131.335 1040,-108 709.249,-79.137 310.035,-36.2362 188.708,-23.0206"/>
<polygon fill="black" stroke="black" points="188.812,-19.5113 178.492,-21.9063 188.053,-26.47 188.812,-19.5113"/>
</g>
<!-- 9&#45;&gt;9 -->
<g id="edge75" class="edge"><title>9&#45;&gt;9</title>
<path fill="none" stroke="black" d="M1772.9,-174.432C1785.69,-177.675 1798,-173.531 1798,-162 1798,-153.622 1791.5,-149.143 1783.04,-148.564"/>
<polygon fill="black" stroke="black" points="1782.5,-145.1 1772.9,-149.568 1783.19,-152.066 1782.5,-145.1"/>
</g>
<!-- 9&#45;&gt;10 -->
<g id="edge76" class="edge"><title>9&#45;&gt;10</title>
<path fill="none" stroke="black" d="M1775.72,-152.077C1805.76,-142.033 1859.48,-124.902 1905,-108 1910.15,-106.089 1915.6,-103.925 1921,-101.796"/>
<polygon fill="black" stroke="black" points="1922.5,-104.965 1930.55,-98.0665 1919.96,-98.4443 1922.5,-104.965"/>
</g>
<!-- 9&#45;&gt;11 -->
<g id="edge77" class="edge"><title>9&#45;&gt;11</title>
<path fill="none" stroke="black" d="M1779.9,-159.514C1868.06,-154.485 2156.15,-136.796 2393,-108 2493.1,-95.8302 2516.61,-81.4499 2617,-72 3178.74,-19.1214 3322.61,-66.6665 3886,-36 3947.23,-32.6671 4018.28,-26.4567 4060.34,-22.5358"/>
<polygon fill="black" stroke="black" points="4060.75,-26.0123 4070.38,-21.5915 4060.1,-19.043 4060.75,-26.0123"/>
</g>
<!-- 9&#45;&gt;12 -->
<g id="edge78" class="edge"><title>9&#45;&gt;12</title>
<path fill="none" stroke="black" d="M1778.34,-155.449C1854.04,-139.137 2085.4,-91.2887 2280,-72 2805.67,-19.8957 2941.8,-82.3753 3468,-36 3495.08,-33.6136 3525.47,-29.0907 3548.35,-25.3098"/>
<polygon fill="black" stroke="black" points="3549.02,-28.7471 3558.3,-23.6352 3547.86,-21.8442 3549.02,-28.7471"/>
</g>
<!-- 9&#45;&gt;13 -->
<g id="edge79" class="edge"><title>9&#45;&gt;13</title>
<path fill="none" stroke="black" d="M1779.42,-157.753C1899.07,-143.089 2391.07,-83.273 2546,-72 3022.34,-37.3396 3143.09,-61.6077 3620,-36 3688.29,-32.3331 3767.84,-25.9915 3813.23,-22.1767"/>
<polygon fill="black" stroke="black" points="3813.79,-25.6416 3823.46,-21.3107 3813.2,-18.6666 3813.79,-25.6416"/>
</g>
<!-- 9&#45;&gt;14 -->
<g id="edge80" class="edge"><title>9&#45;&gt;14</title>
<path fill="none" stroke="black" d="M1776.91,-153.624C1803.15,-144.934 1845.94,-128.981 1879,-108 1899.19,-95.1842 1896.82,-80.9584 1919,-72 1989.51,-43.5183 3169.26,-23.2149 3394.87,-19.5829"/>
<polygon fill="black" stroke="black" points="3394.95,-23.0823 3404.89,-19.4226 3394.83,-16.0832 3394.95,-23.0823"/>
</g>
<!-- 9&#45;&gt;15 -->
<g id="edge81" class="edge"><title>9&#45;&gt;15</title>
<path fill="none" stroke="black" d="M1729.59,-152.736C1680.05,-135.518 1560.74,-95.461 1458,-72 1349.93,-47.3215 1219.74,-30.3979 1157.55,-23.0816"/>
<polygon fill="black" stroke="black" points="1157.79,-19.5865 1147.45,-21.9087 1156.98,-26.5397 1157.79,-19.5865"/>
</g>
<!-- 9&#45;&gt;16 -->
<g id="edge82" class="edge"><title>9&#45;&gt;16</title>
<path fill="none" stroke="black" d="M1736.44,-147.641C1705.39,-122.586 1638.25,-68.4197 1601.79,-38.9982"/>
<polygon fill="black" stroke="black" points="1603.62,-35.9823 1593.64,-32.427 1599.23,-41.4302 1603.62,-35.9823"/>
</g>
<!-- 9&#45;&gt;17 -->
<g id="edge83" class="edge"><title>9&#45;&gt;17</title>
<path fill="none" stroke="black" d="M1748.82,-144.139C1743.99,-125.89 1735.25,-96.1589 1724,-72 1719.45,-62.2283 1713.45,-52.05 1707.82,-43.2559"/>
<polygon fill="black" stroke="black" points="1710.59,-41.0915 1702.16,-34.6676 1704.74,-44.9434 1710.59,-41.0915"/>
</g>
<!-- 9&#45;&gt;18 -->
<g id="edge84" class="edge"><title>9&#45;&gt;18</title>
<path fill="none" stroke="black" d="M1773.9,-150.233C1792.78,-140.179 1821.05,-124.314 1844,-108 1864.04,-93.7549 1863.33,-81.5096 1886,-72 1912.88,-60.7249 2337.14,-30.5087 2466.1,-21.5421"/>
<polygon fill="black" stroke="black" points="2466.53,-25.021 2476.26,-20.8372 2466.04,-18.0378 2466.53,-25.021"/>
</g>
<!-- 9&#45;&gt;19 -->
<g id="edge85" class="edge"><title>9&#45;&gt;19</title>
<path fill="none" stroke="black" d="M1768.03,-146.814C1794.5,-121.841 1846.79,-72.5884 1848,-72 1902.95,-45.3647 2083.17,-28.2059 2161.78,-21.8136"/>
<polygon fill="black" stroke="black" points="2162.48,-25.2685 2172.17,-20.9832 2161.93,-18.2908 2162.48,-25.2685"/>
</g>
<!-- 20 -->
<g id="node20" class="node"><title>20</title>
<ellipse fill="none" stroke="black" cx="1955" cy="-18" rx="27" ry="18"/>
<text text-anchor="middle" x="1955" y="-14.3" font-family="Times,serif" font-size="14.00">20</text>
</g>
<!-- 9&#45;&gt;20 -->
<g id="edge86" class="edge"><title>9&#45;&gt;20</title>
<path fill="none" stroke="black" d="M1759.74,-144.222C1768.51,-124.357 1785.66,-91.5117 1810,-72 1841.94,-46.3933 1887.38,-32.4759 1918.84,-25.4145"/>
<polygon fill="black" stroke="black" points="1919.88,-28.7725 1928.94,-23.2756 1918.43,-21.9245 1919.88,-28.7725"/>
</g>
<!-- 10&#45;&gt;1 -->
<g id="edge87" class="edge"><title>10&#45;&gt;1</title>
<path fill="none" stroke="black" d="M1941.73,-106.116C1917.61,-126.48 1866,-162.219 1816,-180 1629.64,-246.27 948,-179.206 948,-377 948,-451 948,-451 948,-451 948,-506.389 1002.13,-550.78 1035.94,-574.39"/>
<polygon fill="black" stroke="black" points="1034.24,-577.463 1044.47,-580.214 1038.19,-571.683 1034.24,-577.463"/>
</g>
<!-- 10&#45;&gt;2 -->
<g id="edge88" class="edge"><title>10&#45;&gt;2</title>
<path fill="none" stroke="black" d="M1972.2,-104.344C1993.81,-124.609 2031.81,-162.62 2073,-180 2202.83,-234.777 2250.42,-185.556 2388,-216 2400.35,-218.733 2812.6,-349.739 2820,-360 2853.45,-406.403 2801.79,-443.724 2750,-468 2632.3,-523.164 2218.94,-522.839 2092.15,-521.503"/>
<polygon fill="black" stroke="black" points="2092.19,-518.003 2082.15,-521.389 2092.11,-525.003 2092.19,-518.003"/>
</g>
<!-- 10&#45;&gt;3 -->
<g id="edge89" class="edge"><title>10&#45;&gt;3</title>
<path fill="none" stroke="black" d="M1977.55,-100.176C2017.53,-118.541 2102.65,-159.784 2179,-180 2302.85,-212.793 2338.7,-194.504 2465,-216 2476.86,-218.019 2489.64,-220.592 2501.05,-223.123"/>
<polygon fill="black" stroke="black" points="2500.55,-226.599 2511.08,-225.417 2502.11,-219.775 2500.55,-226.599"/>
</g>
<!-- 10&#45;&gt;4 -->
<g id="edge90" class="edge"><title>10&#45;&gt;4</title>
<path fill="none" stroke="black" d="M1927.8,-88.3058C1804.2,-85.0218 1283.16,-69.7748 857,-36 816.647,-32.8019 770.52,-27.4892 739.352,-23.6532"/>
<polygon fill="black" stroke="black" points="739.741,-20.1747 729.386,-22.4141 738.877,-27.1212 739.741,-20.1747"/>
</g>
<!-- 10&#45;&gt;5 -->
<g id="edge91" class="edge"><title>10&#45;&gt;5</title>
<path fill="none" stroke="black" d="M1927.92,-87.622C1820.89,-82.1181 1416.98,-60.8045 1085,-36 1031.01,-31.966 968.575,-26.241 929.934,-22.5735"/>
<polygon fill="black" stroke="black" points="929.98,-19.0621 919.693,-21.5968 929.316,-26.0305 929.98,-19.0621"/>
</g>
<!-- 10&#45;&gt;6 -->
<g id="edge92" class="edge"><title>10&#45;&gt;6</title>
<path fill="none" stroke="black" d="M1927.75,-88.8394C1791.63,-87.8363 1171.92,-80.897 667,-36 637.267,-33.3561 603.737,-28.6544 579.048,-24.8648"/>
<polygon fill="black" stroke="black" points="579.464,-21.3875 569.045,-23.3051 578.386,-28.304 579.464,-21.3875"/>
</g>
<!-- 10&#45;&gt;7 -->
<g id="edge93" class="edge"><title>10&#45;&gt;7</title>
<path fill="none" stroke="black" d="M1927.87,-88.121C1782.46,-83.3863 1080.67,-60.2337 507,-36 391.083,-31.1033 253.929,-24.2285 189.271,-20.9232"/>
<polygon fill="black" stroke="black" points="189.329,-17.4216 179.163,-20.4053 188.971,-24.4124 189.329,-17.4216"/>
</g>
<!-- 10&#45;&gt;9 -->
<g id="edge94" class="edge"><title>10&#45;&gt;9</title>
<path fill="none" stroke="black" d="M1935.77,-102.986C1931.59,-104.721 1927.19,-106.444 1923,-108 1877.05,-125.061 1822.74,-142.357 1787.92,-152.36"/>
<polygon fill="black" stroke="black" points="1786.88,-149.017 1778.21,-155.102 1788.78,-155.754 1786.88,-149.017"/>
</g>
<!-- 10&#45;&gt;10 -->
<g id="edge95" class="edge"><title>10&#45;&gt;10</title>
<path fill="none" stroke="black" d="M1974.9,-102.432C1987.69,-105.675 2000,-101.531 2000,-90 2000,-81.6218 1993.5,-77.1433 1985.04,-76.5644"/>
<polygon fill="black" stroke="black" points="1984.5,-73.1004 1974.9,-77.5679 1985.19,-80.0665 1984.5,-73.1004"/>
</g>
<!-- 10&#45;&gt;11 -->
<g id="edge96" class="edge"><title>10&#45;&gt;11</title>
<path fill="none" stroke="black" d="M1982.1,-88.2023C2065.92,-85.7383 2328.47,-78.0506 2546,-72 3141.54,-55.4349 3291.09,-67.9342 3886,-36 3947.23,-32.7131 4018.28,-26.4887 4060.34,-22.5526"/>
<polygon fill="black" stroke="black" points="4060.76,-26.0288 4070.38,-21.6043 4060.1,-19.0598 4060.76,-26.0288"/>
</g>
<!-- 10&#45;&gt;12 -->
<g id="edge97" class="edge"><title>10&#45;&gt;12</title>
<path fill="none" stroke="black" d="M1980.39,-83.4892C1999.87,-79.5179 2027.5,-74.4446 2052,-72 2678.43,-9.49135 2840.76,-89.7392 3468,-36 3495.08,-33.6796 3525.48,-29.1539 3548.36,-25.3551"/>
<polygon fill="black" stroke="black" points="3549.03,-28.7917 3558.3,-23.6714 3547.86,-21.8899 3549.03,-28.7917"/>
</g>
<!-- 10&#45;&gt;13 -->
<g id="edge98" class="edge"><title>10&#45;&gt;13</title>
<path fill="none" stroke="black" d="M1981.95,-87.358C2037.62,-84.0181 2169.35,-76.3797 2280,-72 2875.3,-48.4377 3024.98,-65.966 3620,-36 3688.3,-32.5601 3767.85,-26.1426 3813.23,-22.2522"/>
<polygon fill="black" stroke="black" points="3813.8,-25.716 3823.46,-21.368 3813.2,-18.742 3813.8,-25.716"/>
</g>
<!-- 10&#45;&gt;14 -->
<g id="edge99" class="edge"><title>10&#45;&gt;14</title>
<path fill="none" stroke="black" d="M1980.4,-83.5803C1999.89,-79.6568 2027.52,-74.6034 2052,-72 2323.28,-43.1518 3202.78,-23.7103 3394.76,-19.7483"/>
<polygon fill="black" stroke="black" points="3394.98,-23.2447 3404.91,-19.5402 3394.84,-16.2462 3394.98,-23.2447"/>
</g>
<!-- 10&#45;&gt;15 -->
<g id="edge100" class="edge"><title>10&#45;&gt;15</title>
<path fill="none" stroke="black" d="M1928.2,-86.7503C1805.78,-76.4756 1299.72,-34.0008 1158.02,-22.1075"/>
<polygon fill="black" stroke="black" points="1157.96,-18.5901 1147.7,-21.2414 1157.38,-25.5656 1157.96,-18.5901"/>
</g>
<!-- 10&#45;&gt;16 -->
<g id="edge101" class="edge"><title>10&#45;&gt;16</title>
<path fill="none" stroke="black" d="M1928.85,-84.7397C1876.67,-76.1579 1755.93,-55.9054 1655,-36 1640.91,-33.2218 1625.46,-29.9083 1612.04,-26.9476"/>
<polygon fill="black" stroke="black" points="1612.76,-23.5221 1602.24,-24.7671 1611.24,-30.3551 1612.76,-23.5221"/>
</g>
<!-- 10&#45;&gt;17 -->
<g id="edge102" class="edge"><title>10&#45;&gt;17</title>
<path fill="none" stroke="black" d="M1930.16,-82.4146C1882.77,-69.849 1779.37,-42.4306 1725.37,-28.1142"/>
<polygon fill="black" stroke="black" points="1726.14,-24.6969 1715.58,-25.5169 1724.35,-31.4631 1726.14,-24.6969"/>
</g>
<!-- 10&#45;&gt;18 -->
<g id="edge103" class="edge"><title>10&#45;&gt;18</title>
<path fill="none" stroke="black" d="M1980.87,-84.0556C2000.38,-80.4282 2027.81,-75.5384 2052,-72 2205.48,-49.5513 2389.43,-30.3034 2466.37,-22.5958"/>
<polygon fill="black" stroke="black" points="2466.89,-26.0607 2476.5,-21.5857 2466.2,-19.0952 2466.89,-26.0607"/>
</g>
<!-- 10&#45;&gt;19 -->
<g id="edge104" class="edge"><title>10&#45;&gt;19</title>
<path fill="none" stroke="black" d="M1979.4,-81.9613C1990.03,-78.8974 2002.63,-75.2674 2014,-72 2066.69,-56.8628 2127.83,-39.358 2164.95,-28.7384"/>
<polygon fill="black" stroke="black" points="2166.1,-32.0489 2174.75,-25.9334 2164.18,-25.3188 2166.1,-32.0489"/>
</g>
<!-- 10&#45;&gt;20 -->
<g id="edge105" class="edge"><title>10&#45;&gt;20</title>
<path fill="none" stroke="black" d="M1955,-71.6966C1955,-63.9827 1955,-54.7125 1955,-46.1124"/>
<polygon fill="black" stroke="black" points="1958.5,-46.1043 1955,-36.1043 1951.5,-46.1044 1958.5,-46.1043"/>
</g>
<!-- 22&#45;&gt;1 -->
<g id="edge106" class="edge"><title>22&#45;&gt;1</title>
<path fill="none" stroke="black" d="M1965.69,-384.83C1836.25,-414.648 1248.42,-550.058 1097.43,-584.838"/>
<polygon fill="black" stroke="black" points="1096.29,-581.51 1087.33,-587.165 1097.86,-588.331 1096.29,-581.51"/>
</g>
<!-- 22&#45;&gt;2 -->
<g id="edge107" class="edge"><title>22&#45;&gt;2</title>
<path fill="none" stroke="black" d="M2002.36,-394.453C2015.9,-418.392 2037.13,-464.746 2048.35,-494.216"/>
<polygon fill="black" stroke="black" points="2045.15,-495.675 2051.86,-503.871 2051.73,-493.278 2045.15,-495.675"/>
</g>
<!-- 22&#45;&gt;3 -->
<g id="edge108" class="edge"><title>22&#45;&gt;3</title>
<path fill="none" stroke="black" d="M2015.79,-370.53C2103.5,-347.633 2399.35,-270.407 2500.65,-243.967"/>
<polygon fill="black" stroke="black" points="2501.59,-247.339 2510.38,-241.427 2499.82,-240.566 2501.59,-247.339"/>
</g>
<!-- 22&#45;&gt;4 -->
<g id="edge109" class="edge"><title>22&#45;&gt;4</title>
<path fill="none" stroke="black" d="M1963.87,-376.514C1845.45,-374.177 1373.51,-362.575 1231,-324 1021.87,-267.394 970.746,-233.296 794,-108 766.71,-88.6541 739.876,-61.0685 722.5,-41.7519"/>
<polygon fill="black" stroke="black" points="724.909,-39.193 715.659,-34.0277 719.669,-43.8343 724.909,-39.193"/>
</g>
<!-- 22&#45;&gt;5 -->
<g id="edge110" class="edge"><title>22&#45;&gt;5</title>
<path fill="none" stroke="black" d="M1963.94,-376.856C1853.01,-375.968 1433.16,-369.6 1310,-324 1135.72,-259.475 970.387,-99.6019 913.685,-40.9919"/>
<polygon fill="black" stroke="black" points="916.162,-38.5191 906.713,-33.7276 911.112,-43.3661 916.162,-38.5191"/>
</g>
<!-- 22&#45;&gt;6 -->
<g id="edge111" class="edge"><title>22&#45;&gt;6</title>
<path fill="none" stroke="black" d="M1964.03,-376.721C1834.74,-375.178 1277.74,-366.161 1110,-324 1035.94,-305.386 1021.94,-286.86 954,-252 806.936,-176.542 636.722,-75.5 570.936,-35.9126"/>
<polygon fill="black" stroke="black" points="572.732,-32.9081 562.36,-30.7436 569.118,-38.9033 572.732,-32.9081"/>
</g>
<!-- 22&#45;&gt;7 -->
<g id="edge112" class="edge"><title>22&#45;&gt;7</title>
<path fill="none" stroke="black" d="M1964.06,-376.368C1826.95,-373.024 1205.89,-356.324 1016,-324 676.983,-266.29 581.368,-260.223 273,-108 235.767,-89.6203 198.041,-59.6738 174.838,-39.6595"/>
<polygon fill="black" stroke="black" points="177.092,-36.981 167.262,-33.0296 172.482,-42.2489 177.092,-36.981"/>
</g>
<!-- 22&#45;&gt;9 -->
<g id="edge113" class="edge"><title>22&#45;&gt;9</title>
<path fill="none" stroke="black" d="M1980.68,-360.89C1974.06,-350.452 1965.37,-336.517 1958,-324 1930.15,-276.679 1939.75,-251.67 1898,-216 1866.79,-189.329 1821.01,-175.6 1789.27,-168.874"/>
<polygon fill="black" stroke="black" points="1789.58,-165.367 1779.09,-166.853 1788.22,-172.233 1789.58,-165.367"/>
</g>
<!-- 22&#45;&gt;10 -->
<g id="edge114" class="edge"><title>22&#45;&gt;10</title>
<path fill="none" stroke="black" d="M1985.55,-360.114C1974.97,-326.351 1951.99,-247.92 1944,-180 1942.13,-164.11 1942.37,-159.916 1944,-144 1944.88,-135.455 1946.53,-126.255 1948.29,-117.958"/>
<polygon fill="black" stroke="black" points="1951.74,-118.573 1950.54,-108.047 1944.92,-117.028 1951.74,-118.573"/>
</g>
<!-- 22&#45;&gt;11 -->
<g id="edge115" class="edge"><title>22&#45;&gt;11</title>
<path fill="none" stroke="black" d="M2018.07,-376.53C2124.14,-374.434 2521.66,-364.187 2846,-324 3191.95,-281.136 3276.84,-256.194 3617,-180 3740.29,-152.384 3772.59,-149.278 3892,-108 3955.55,-86.0298 4027.01,-53.0158 4066.55,-33.981"/>
<polygon fill="black" stroke="black" points="4068.41,-36.9671 4075.88,-29.4581 4065.36,-30.6672 4068.41,-36.9671"/>
</g>
<!-- 22&#45;&gt;12 -->
<g id="edge116" class="edge"><title>22&#45;&gt;12</title>
<path fill="none" stroke="black" d="M2018.16,-376.093C2157.8,-370.787 2807.62,-338.278 3309,-180 3385.69,-155.791 3406.31,-149.827 3475,-108 3507.38,-88.2823 3540.55,-59.7678 3561.66,-40.3657"/>
<polygon fill="black" stroke="black" points="3564.2,-42.7874 3569.14,-33.4132 3559.43,-37.6624 3564.2,-42.7874"/>
</g>
<!-- 22&#45;&gt;13 -->
<g id="edge117" class="edge"><title>22&#45;&gt;13</title>
<path fill="none" stroke="black" d="M2018.04,-376.541C2116.59,-374.564 2465.63,-364.916 2750,-324 2823.86,-313.372 2841.05,-303.73 2914,-288 3140.49,-239.161 3198.78,-234.396 3424,-180 3542.64,-151.346 3575.89,-153.852 3689,-108 3738.3,-88.0151 3791.6,-56.3611 3822.83,-36.6821"/>
<polygon fill="black" stroke="black" points="3824.84,-39.547 3831.4,-31.2271 3821.09,-33.6403 3824.84,-39.547"/>
</g>
<!-- 22&#45;&gt;14 -->
<g id="edge118" class="edge"><title>22&#45;&gt;14</title>
<path fill="none" stroke="black" d="M2017.42,-373.895C2080.25,-366.399 2243.49,-346.283 2379,-324 2462.52,-310.267 2482.65,-302.678 2566,-288 2865.64,-235.235 2950.71,-267.877 3242,-180 3315.88,-157.711 3347.73,-164.769 3400,-108 3415.77,-90.878 3423.88,-65.4302 3427.99,-46.1264"/>
<polygon fill="black" stroke="black" points="3431.46,-46.6022 3429.88,-36.126 3424.58,-45.3015 3431.46,-46.6022"/>
</g>
<!-- 22&#45;&gt;15 -->
<g id="edge119" class="edge"><title>22&#45;&gt;15</title>
<path fill="none" stroke="black" d="M1963.98,-377.497C1857.96,-379.027 1470.96,-380.556 1365,-324 1243.73,-259.275 1161.52,-105.81 1132.55,-44.7285"/>
<polygon fill="black" stroke="black" points="1135.61,-43.0021 1128.21,-35.4174 1129.26,-45.9598 1135.61,-43.0021"/>
</g>
<!-- 22&#45;&gt;16 -->
<g id="edge120" class="edge"><title>22&#45;&gt;16</title>
<path fill="none" stroke="black" d="M1964.13,-375.658C1887.13,-371.452 1667.2,-356.801 1604,-324 1565.2,-303.864 1553,-292.679 1537,-252 1508.72,-180.093 1543.67,-87.938 1564.14,-44.2035"/>
<polygon fill="black" stroke="black" points="1567.32,-45.6695 1568.5,-35.1411 1561.01,-42.6327 1567.32,-45.6695"/>
</g>
<!-- 22&#45;&gt;17 -->
<g id="edge121" class="edge"><title>22&#45;&gt;17</title>
<path fill="none" stroke="black" d="M1964.65,-373.569C1878.21,-361.723 1605.89,-319.524 1555,-252 1499.08,-177.792 1611.5,-78.6717 1664.94,-37.8159"/>
<polygon fill="black" stroke="black" points="1667.09,-40.5803 1672.97,-31.7718 1662.88,-34.9863 1667.09,-40.5803"/>
</g>
<!-- 22&#45;&gt;18 -->
<g id="edge122" class="edge"><title>22&#45;&gt;18</title>
<path fill="none" stroke="black" d="M2016.67,-372.418C2066.78,-363.434 2181.1,-342.748 2277,-324 2354.93,-308.765 2374.1,-303.392 2452,-288 2536.32,-271.341 2566.16,-292.435 2642,-252 2692.69,-224.975 2747.73,-189.753 2713,-144 2677.01,-96.5896 2634.67,-139.228 2584,-108 2557.2,-91.482 2533.88,-63.57 2519.23,-43.4026"/>
<polygon fill="black" stroke="black" points="2521.94,-41.1724 2513.32,-35.0201 2516.23,-45.2086 2521.94,-41.1724"/>
</g>
<!-- 22&#45;&gt;19 -->
<g id="edge123" class="edge"><title>22&#45;&gt;19</title>
<path fill="none" stroke="black" d="M1998.2,-360.322C2006.16,-342.229 2019.64,-312.631 2033,-288 2083.4,-195.061 2151.96,-89.6583 2182.8,-43.1876"/>
<polygon fill="black" stroke="black" points="2185.82,-44.9644 2188.45,-34.7004 2179.99,-41.086 2185.82,-44.9644"/>
</g>
<!-- 22&#45;&gt;21 -->
<g id="edge124" class="edge"><title>22&#45;&gt;21</title>
<path fill="none" stroke="black" d="M2002.96,-361.85C2017.99,-343.311 2045.09,-311.494 2072,-288 2087.23,-274.708 2105.87,-261.803 2120.99,-252.056"/>
<polygon fill="black" stroke="black" points="2122.86,-255.013 2129.44,-246.703 2119.12,-249.1 2122.86,-255.013"/>
</g>
<!-- 22&#45;&gt;22 -->
<g id="edge125" class="edge"><title>22&#45;&gt;22</title>
<path fill="none" stroke="black" d="M2010.9,-390.432C2023.69,-393.675 2036,-389.531 2036,-378 2036,-369.622 2029.5,-365.143 2021.04,-364.564"/>
<polygon fill="black" stroke="black" points="2020.5,-361.1 2010.9,-365.568 2021.19,-368.066 2020.5,-361.1"/>
</g>
<!-- 22&#45;&gt;23 -->
<g id="edge126" class="edge"><title>22&#45;&gt;23</title>
<path fill="none" stroke="black" d="M2010.21,-365.137C2050.89,-340.026 2145.82,-281.415 2193.15,-252.195"/>
<polygon fill="black" stroke="black" points="2195.01,-255.16 2201.68,-246.929 2191.33,-249.204 2195.01,-255.16"/>
</g>
<!-- 22&#45;&gt;24 -->
<g id="edge127" class="edge"><title>22&#45;&gt;24</title>
<path fill="none" stroke="black" d="M1968.68,-367.559C1946.23,-356.622 1911.93,-338.361 1888,-324.746"/>
<polygon fill="black" stroke="black" points="1889.48,-321.561 1879.07,-319.598 1885.98,-327.625 1889.48,-321.561"/>
</g>
<!-- 22&#45;&gt;25 -->
<g id="edge128" class="edge"><title>22&#45;&gt;25</title>
<path fill="none" stroke="black" d="M2014.09,-368.2C2040.1,-358.13 2083.51,-340.846 2120,-324 2171.44,-300.255 2229.74,-269.419 2263.83,-250.978"/>
<polygon fill="black" stroke="black" points="2265.65,-253.968 2272.77,-246.121 2262.31,-247.816 2265.65,-253.968"/>
</g>
<!-- 22&#45;&gt;26 -->
<g id="edge129" class="edge"><title>22&#45;&gt;26</title>
<path fill="none" stroke="black" d="M2016.05,-384.776C2062.43,-396.538 2161.11,-423.422 2213.27,-438.41"/>
<polygon fill="black" stroke="black" points="2212.48,-441.824 2223.06,-441.241 2214.42,-435.1 2212.48,-441.824"/>
</g>
<!-- 36 -->
<g id="node36" class="node"><title>36</title>
<ellipse fill="none" stroke="black" cx="1401" cy="-306" rx="27" ry="18"/>
<text text-anchor="middle" x="1401" y="-302.3" font-family="Times,serif" font-size="14.00">36</text>
</g>
<!-- 22&#45;&gt;36 -->
<g id="edge130" class="edge"><title>22&#45;&gt;36</title>
<path fill="none" stroke="black" d="M1963.89,-377.672C1882.46,-379.003 1633.57,-378.04 1437,-324 1435.05,-323.464 1433.08,-322.829 1431.11,-322.124"/>
<polygon fill="black" stroke="black" points="1432.05,-318.726 1421.47,-318.154 1429.38,-325.199 1432.05,-318.726"/>
</g>
<!-- 37 -->
<g id="node37" class="node"><title>37</title>
<ellipse fill="none" stroke="black" cx="1473" cy="-306" rx="27" ry="18"/>
<text text-anchor="middle" x="1473" y="-302.3" font-family="Times,serif" font-size="14.00">37</text>
</g>
<!-- 22&#45;&gt;37 -->
<g id="edge131" class="edge"><title>22&#45;&gt;37</title>
<path fill="none" stroke="black" d="M1963.89,-376.648C1890.32,-375.126 1681.24,-367.034 1514,-324 1510.61,-323.129 1507.14,-322.032 1503.72,-320.818"/>
<polygon fill="black" stroke="black" points="1504.9,-317.523 1494.31,-317.171 1502.37,-324.05 1504.9,-317.523"/>
</g>
<!-- 24&#45;&gt;1 -->
<g id="edge132" class="edge"><title>24&#45;&gt;1</title>
<path fill="none" stroke="black" d="M1837.36,-314.878C1759.34,-340.951 1503,-427.153 1293,-504 1221.52,-530.157 1138.38,-562.719 1093.93,-580.304"/>
<polygon fill="black" stroke="black" points="1092.54,-577.091 1084.53,-584.028 1095.11,-583.599 1092.54,-577.091"/>
</g>
<!-- 24&#45;&gt;2 -->
<g id="edge133" class="edge"><title>24&#45;&gt;2</title>
<path fill="none" stroke="black" d="M1877.03,-320.787C1913.38,-356.51 2000.61,-452.403 2037.91,-497.257"/>
<polygon fill="black" stroke="black" points="2035.43,-499.749 2044.47,-505.264 2040.84,-495.311 2035.43,-499.749"/>
</g>
<!-- 24&#45;&gt;3 -->
<g id="edge134" class="edge"><title>24&#45;&gt;3</title>
<path fill="none" stroke="black" d="M1887.42,-302.256C1991.96,-291.398 2376.87,-251.423 2498.15,-238.827"/>
<polygon fill="black" stroke="black" points="2498.81,-242.277 2508.4,-237.763 2498.09,-235.315 2498.81,-242.277"/>
</g>
<!-- 24&#45;&gt;4 -->
<g id="edge135" class="edge"><title>24&#45;&gt;4</title>
<path fill="none" stroke="black" d="M1834.13,-304.136C1770.34,-301.482 1605.3,-291.071 1474,-252 1438.18,-241.34 1433.43,-227.904 1398,-216 1175.49,-141.234 1102.7,-185.128 881,-108 825.67,-88.7512 765.547,-55.9572 731.253,-36.0054"/>
<polygon fill="black" stroke="black" points="732.686,-32.7879 722.291,-30.7404 729.14,-38.8235 732.686,-32.7879"/>
</g>
<!-- 24&#45;&gt;5 -->
<g id="edge136" class="edge"><title>24&#45;&gt;5</title>
<path fill="none" stroke="black" d="M1834.29,-302.611C1780.49,-297.312 1655.6,-282.553 1555,-252 1517.3,-240.551 1510.69,-230.34 1474,-216 1269.11,-135.925 1016.64,-56.827 926.737,-29.2521"/>
<polygon fill="black" stroke="black" points="927.665,-25.8759 917.079,-26.2964 925.617,-32.5695 927.665,-25.8759"/>
</g>
<!-- 24&#45;&gt;6 -->
<g id="edge137" class="edge"><title>24&#45;&gt;6</title>
<path fill="none" stroke="black" d="M1834.3,-302.586C1763.16,-296.015 1563.25,-276.643 1398,-252 1354.31,-245.484 1050.06,-189.862 1007,-180 889.286,-153.04 858.784,-148.454 745,-108 682.586,-85.8098 612.365,-53.0105 573.334,-34.0451"/>
<polygon fill="black" stroke="black" points="574.628,-30.7819 564.106,-29.5363 571.555,-37.0712 574.628,-30.7819"/>
</g>
<!-- 24&#45;&gt;7 -->
<g id="edge138" class="edge"><title>24&#45;&gt;7</title>
<path fill="none" stroke="black" d="M1834.07,-304.294C1685.28,-299.809 949.697,-270 377,-108 305.562,-87.7921 225.525,-53.0681 182.809,-33.502"/>
<polygon fill="black" stroke="black" points="184.075,-30.2314 173.528,-29.2197 181.142,-36.5874 184.075,-30.2314"/>
</g>
<!-- 24&#45;&gt;9 -->
<g id="edge139" class="edge"><title>24&#45;&gt;9</title>
<path fill="none" stroke="black" d="M1871.03,-289.184C1881.63,-270.265 1894.89,-238.352 1880,-216 1860.03,-186.031 1819.55,-172.979 1789.64,-167.313"/>
<polygon fill="black" stroke="black" points="1789.99,-163.823 1779.54,-165.601 1788.82,-170.724 1789.99,-163.823"/>
</g>
<!-- 24&#45;&gt;10 -->
<g id="edge140" class="edge"><title>24&#45;&gt;10</title>
<path fill="none" stroke="black" d="M1874.77,-290.015C1883.06,-280.025 1892.96,-266.168 1898,-252 1914.13,-206.651 1886.81,-188.141 1906,-144 1911.39,-131.61 1920.93,-120.256 1930.17,-111.262"/>
<polygon fill="black" stroke="black" points="1932.76,-113.633 1937.76,-104.292 1928.03,-108.476 1932.76,-113.633"/>
</g>
<!-- 24&#45;&gt;11 -->
<g id="edge141" class="edge"><title>24&#45;&gt;11</title>
<path fill="none" stroke="black" d="M1888.03,-305.292C2019.17,-306.399 2602.03,-307.787 3075,-252 3409.48,-212.548 3492.71,-191.493 3819,-108 3908.98,-84.975 4012.62,-49.3001 4064.23,-30.8905"/>
<polygon fill="black" stroke="black" points="4065.61,-34.1153 4073.84,-27.4477 4063.25,-27.5255 4065.61,-34.1153"/>
</g>
<!-- 24&#45;&gt;12 -->
<g id="edge142" class="edge"><title>24&#45;&gt;12</title>
<path fill="none" stroke="black" d="M1887.95,-304.509C1999.98,-302.249 2439.85,-291.223 2799,-252 2997.29,-230.344 3049.5,-232.287 3242,-180 3327.54,-156.764 3347.95,-146.069 3428,-108 3474.19,-86.0346 3525.23,-55.6782 3555.95,-36.7018"/>
<polygon fill="black" stroke="black" points="3558.16,-39.4516 3564.8,-31.1999 3554.46,-33.5065 3558.16,-39.4516"/>
</g>
<!-- 24&#45;&gt;13 -->
<g id="edge143" class="edge"><title>24&#45;&gt;13</title>
<path fill="none" stroke="black" d="M1888.26,-305.144C2012.12,-305.494 2534.03,-303.664 2958,-252 3122.57,-231.946 3161.98,-215.11 3324,-180 3459.7,-150.594 3495.64,-149.95 3628,-108 3697.77,-85.8865 3776.71,-52.0303 3819.12,-33.0864"/>
<polygon fill="black" stroke="black" points="3820.65,-36.2341 3828.34,-28.9436 3817.78,-29.8487 3820.65,-36.2341"/>
</g>
<!-- 24&#45;&gt;14 -->
<g id="edge144" class="edge"><title>24&#45;&gt;14</title>
<path fill="none" stroke="black" d="M1888.04,-303.887C1988.18,-299.612 2347.35,-282.918 2642,-252 2754.96,-240.147 3037.35,-205.615 3148,-180 3249.05,-156.607 3286.68,-169.776 3370,-108 3392.23,-91.5189 3409.37,-64.6322 3419.94,-44.7172"/>
<polygon fill="black" stroke="black" points="3423.17,-46.0764 3424.59,-35.5769 3416.93,-42.9006 3423.17,-46.0764"/>
</g>
<!-- 24&#45;&gt;15 -->
<g id="edge145" class="edge"><title>24&#45;&gt;15</title>
<path fill="none" stroke="black" d="M1845.2,-290.931C1833.58,-280.434 1817.52,-265.616 1804,-252 1788.71,-236.598 1789.99,-226.514 1771,-216 1693.9,-173.307 1661.96,-199.449 1576,-180 1455.71,-152.783 1423.72,-150.677 1308,-108 1250.4,-86.7573 1186.45,-54.2602 1150.24,-34.9707"/>
<polygon fill="black" stroke="black" points="1151.69,-31.7761 1141.22,-30.1334 1148.38,-37.9447 1151.69,-31.7761"/>
</g>
<!-- 24&#45;&gt;16 -->
<g id="edge146" class="edge"><title>24&#45;&gt;16</title>
<path fill="none" stroke="black" d="M1854.47,-288.502C1845.8,-268.603 1828.65,-235.415 1804,-216 1765.58,-185.733 1740.13,-207.972 1700,-180 1648.57,-144.146 1609.13,-80.1703 1589.91,-44.6141"/>
<polygon fill="black" stroke="black" points="1592.8,-42.5925 1585.04,-35.386 1586.62,-45.8628 1592.8,-42.5925"/>
</g>
<!-- 24&#45;&gt;17 -->
<g id="edge147" class="edge"><title>24&#45;&gt;17</title>
<path fill="none" stroke="black" d="M1862.22,-287.917C1862.66,-268.061 1860.21,-235.531 1842,-216 1802.58,-173.712 1755.35,-223.264 1717,-180 1699.85,-160.647 1693.93,-86.9339 1691.96,-46.2952"/>
<polygon fill="black" stroke="black" points="1695.45,-46.0918 1691.51,-36.2553 1688.46,-46.3994 1695.45,-46.0918"/>
</g>
<!-- 24&#45;&gt;18 -->
<g id="edge148" class="edge"><title>24&#45;&gt;18</title>
<path fill="none" stroke="black" d="M1888.3,-304.909C2004.24,-304.232 2455.94,-298.599 2589,-252 2642.4,-233.297 2667.63,-230.062 2694,-180 2753.11,-67.8003 2555.35,-162.217 2508,-108 2493.42,-91.3016 2493.59,-65.4225 2496.57,-45.8663"/>
<polygon fill="black" stroke="black" points="2500.01,-46.493 2498.38,-36.0249 2493.13,-45.227 2500.01,-46.493"/>
</g>
<!-- 24&#45;&gt;19 -->
<g id="edge149" class="edge"><title>24&#45;&gt;19</title>
<path fill="none" stroke="black" d="M1876.29,-290.92C1916.6,-253.978 2029.4,-151.629 2128,-72 2142.53,-60.2666 2159.25,-47.7421 2172.81,-37.8158"/>
<polygon fill="black" stroke="black" points="2175.18,-40.4161 2181.21,-31.7024 2171.06,-34.7559 2175.18,-40.4161"/>
</g>
<!-- 24&#45;&gt;21 -->
<g id="edge150" class="edge"><title>24&#45;&gt;21</title>
<path fill="none" stroke="black" d="M1886.05,-298.91C1937.44,-286.422 2054.86,-257.881 2113.83,-243.547"/>
<polygon fill="black" stroke="black" points="2114.91,-246.888 2123.8,-241.125 2113.25,-240.086 2114.91,-246.888"/>
</g>
<!-- 24&#45;&gt;22 -->
<g id="edge151" class="edge"><title>24&#45;&gt;22</title>
<path fill="none" stroke="black" d="M1883.42,-316.489C1905.92,-327.457 1940.26,-345.739 1964.16,-359.343"/>
<polygon fill="black" stroke="black" points="1962.66,-362.52 1973.07,-364.485 1966.16,-356.457 1962.66,-362.52"/>
</g>
<!-- 24&#45;&gt;23 -->
<g id="edge152" class="edge"><title>24&#45;&gt;23</title>
<path fill="none" stroke="black" d="M1888.04,-303.134C1944.4,-298.695 2078.06,-285.276 2185,-252 2186.93,-251.399 2188.89,-250.714 2190.85,-249.971"/>
<polygon fill="black" stroke="black" points="2192.61,-253.025 2200.46,-245.904 2189.88,-246.578 2192.61,-253.025"/>
</g>
<!-- 24&#45;&gt;24 -->
<g id="edge153" class="edge"><title>24&#45;&gt;24</title>
<path fill="none" stroke="black" d="M1880.9,-318.432C1893.69,-321.675 1906,-317.531 1906,-306 1906,-297.622 1899.5,-293.143 1891.04,-292.564"/>
<polygon fill="black" stroke="black" points="1890.5,-289.1 1880.9,-293.568 1891.19,-296.066 1890.5,-289.1"/>
</g>
<!-- 24&#45;&gt;25 -->
<g id="edge154" class="edge"><title>24&#45;&gt;25</title>
<path fill="none" stroke="black" d="M1888.01,-304.235C1952.92,-301.788 2122.29,-291.776 2257,-252 2258.94,-251.427 2260.9,-250.764 2262.87,-250.037"/>
<polygon fill="black" stroke="black" points="2264.61,-253.1 2272.49,-246.013 2261.91,-246.642 2264.61,-253.1"/>
</g>
<!-- 24&#45;&gt;26 -->
<g id="edge155" class="edge"><title>24&#45;&gt;26</title>
<path fill="none" stroke="black" d="M1886.65,-311.859C1924.32,-320.301 1995.56,-338.817 2054,-360 2114.19,-381.817 2181.85,-413.064 2219.1,-432.14"/>
<polygon fill="black" stroke="black" points="2217.84,-435.432 2228.33,-436.947 2221.07,-429.223 2217.84,-435.432"/>
</g>
<!-- 38 -->
<g id="node38" class="node"><title>38</title>
<ellipse fill="none" stroke="black" cx="1591" cy="-234" rx="27" ry="18"/>
<text text-anchor="middle" x="1591" y="-230.3" font-family="Times,serif" font-size="14.00">38</text>
</g>
<!-- 24&#45;&gt;38 -->
<g id="edge156" class="edge"><title>24&#45;&gt;38</title>
<path fill="none" stroke="black" d="M1834.86,-301C1791.07,-293.875 1700.44,-277.317 1627,-252 1625.09,-251.341 1623.14,-250.611 1621.2,-249.834"/>
<polygon fill="black" stroke="black" points="1622.18,-246.447 1611.62,-245.679 1619.4,-252.869 1622.18,-246.447"/>
</g>
<!-- 39 -->
<g id="node39" class="node"><title>39</title>
<ellipse fill="none" stroke="black" cx="1663" cy="-234" rx="27" ry="18"/>
<text text-anchor="middle" x="1663" y="-230.3" font-family="Times,serif" font-size="14.00">39</text>
</g>
<!-- 24&#45;&gt;39 -->
<g id="edge157" class="edge"><title>24&#45;&gt;39</title>
<path fill="none" stroke="black" d="M1836.51,-298.029C1804.49,-288.679 1746.84,-271.036 1699,-252 1697.17,-251.272 1695.3,-250.495 1693.42,-249.689"/>
<polygon fill="black" stroke="black" points="1694.68,-246.418 1684.13,-245.514 1691.82,-252.804 1694.68,-246.418"/>
</g>
<!-- 40 -->
<g id="node40" class="node"><title>40</title>
<ellipse fill="none" stroke="black" cx="1735" cy="-234" rx="27" ry="18"/>
<text text-anchor="middle" x="1735" y="-230.3" font-family="Times,serif" font-size="14.00">40</text>
</g>
<!-- 24&#45;&gt;40 -->
<g id="edge158" class="edge"><title>24&#45;&gt;40</title>
<path fill="none" stroke="black" d="M1840.76,-293.753C1820,-282.221 1787.52,-264.175 1764.02,-251.125"/>
<polygon fill="black" stroke="black" points="1765.64,-248.016 1755.19,-246.219 1762.24,-254.135 1765.64,-248.016"/>
</g>
<!-- 26&#45;&gt;1 -->
<g id="edge159" class="edge"><title>26&#45;&gt;1</title>
<path fill="none" stroke="black" d="M2231.45,-465.022C2207.3,-485.818 2158.39,-524.088 2109,-540 2011.38,-571.451 1274.03,-588.605 1099.13,-592.257"/>
<polygon fill="black" stroke="black" points="1099.05,-588.758 1089.12,-592.464 1099.19,-595.756 1099.05,-588.758"/>
</g>
<!-- 26&#45;&gt;2 -->
<g id="edge160" class="edge"><title>26&#45;&gt;2</title>
<path fill="none" stroke="black" d="M2225.1,-460.75C2191.68,-473.844 2128.17,-497.017 2088.82,-510.488"/>
<polygon fill="black" stroke="black" points="2087.48,-507.247 2079.13,-513.772 2089.73,-513.877 2087.48,-507.247"/>
</g>
<!-- 26&#45;&gt;3 -->
<g id="edge161" class="edge"><title>26&#45;&gt;3</title>
<path fill="none" stroke="black" d="M2273.03,-445.143C2311.5,-438.744 2385.1,-423.797 2442,-396 2465.96,-384.294 2465.94,-371.5 2490,-360 2548.74,-331.921 2592.02,-375.385 2632,-324 2641.83,-311.372 2640.16,-301.761 2632,-288 2618.59,-265.385 2591.74,-251.796 2569.69,-244.049"/>
<polygon fill="black" stroke="black" points="2570.55,-240.649 2559.96,-240.889 2568.39,-247.307 2570.55,-240.649"/>
</g>
<!-- 26&#45;&gt;4 -->
<g id="edge162" class="edge"><title>26&#45;&gt;4</title>
<path fill="none" stroke="black" d="M2219.77,-448.717C2076.93,-447.061 1412.92,-437.238 1212,-396 1031,-358.851 960.313,-374.515 822,-252 757.357,-194.74 723.096,-94.0198 709.743,-45.9729"/>
<polygon fill="black" stroke="black" points="713.043,-44.7664 707.068,-36.017 706.283,-46.5827 713.043,-44.7664"/>
</g>
<!-- 26&#45;&gt;5 -->
<g id="edge163" class="edge"><title>26&#45;&gt;5</title>
<path fill="none" stroke="black" d="M2219.64,-448.432C2073.59,-445.271 1389.06,-428.796 1301,-396 1109.31,-324.608 1068.62,-268.65 942,-108 926.544,-88.3903 913.198,-63.2541 904.355,-44.6993"/>
<polygon fill="black" stroke="black" points="907.424,-42.9983 900.038,-35.4032 901.076,-45.947 907.424,-42.9983"/>
</g>
<!-- 26&#45;&gt;6 -->
<g id="edge164" class="edge"><title>26&#45;&gt;6</title>
<path fill="none" stroke="black" d="M2219.87,-449.289C2061.36,-450.758 1253.74,-455.184 1014,-396 722.93,-324.143 564.483,-361.24 404,-108 395.435,-94.4853 394.923,-85.1759 404,-72 426.741,-38.9914 472.998,-26.5262 505.899,-21.8274"/>
<polygon fill="black" stroke="black" points="506.575,-25.2702 516.065,-20.5585 505.708,-18.3241 506.575,-25.2702"/>
</g>
<!-- 26&#45;&gt;7 -->
<g id="edge165" class="edge"><title>26&#45;&gt;7</title>
<path fill="none" stroke="black" d="M2219.88,-448.853C2049.08,-447.792 1120.27,-440.054 840,-396 606.483,-359.295 543.961,-348.117 328,-252 273.252,-227.633 252.031,-226.311 214,-180 181.239,-140.106 164.488,-80.9557 157.04,-46.5589"/>
<polygon fill="black" stroke="black" points="160.377,-45.4098 154.939,-36.3166 153.52,-46.8159 160.377,-45.4098"/>
</g>
<!-- 26&#45;&gt;9 -->
<g id="edge166" class="edge"><title>26&#45;&gt;9</title>
<path fill="none" stroke="black" d="M2260.91,-434.448C2297.41,-394.528 2389.11,-281.898 2329,-216 2327.85,-214.744 1916.08,-177.652 1789.55,-166.281"/>
<polygon fill="black" stroke="black" points="1789.84,-162.794 1779.57,-165.385 1789.21,-169.766 1789.84,-162.794"/>
</g>
<!-- 26&#45;&gt;10 -->
<g id="edge167" class="edge"><title>26&#45;&gt;10</title>
<path fill="none" stroke="black" d="M2267,-437.804C2282.66,-428.268 2304.21,-413.37 2319,-396 2371.79,-334.018 2408.96,-275.133 2353,-216 2296.06,-155.838 2046.07,-232.501 1982,-180 1963.9,-165.166 1957.64,-138.597 1955.61,-118.338"/>
<polygon fill="black" stroke="black" points="1959.09,-117.859 1954.89,-108.132 1952.11,-118.355 1959.09,-117.859"/>
</g>
<!-- 26&#45;&gt;11 -->
<g id="edge168" class="edge"><title>26&#45;&gt;11</title>
<path fill="none" stroke="black" d="M2274.14,-449.139C2373.02,-449.218 2723.04,-445.74 3006,-396 3205.25,-360.975 3748.29,-199.691 3951,-108 3995.17,-88.0184 4042.41,-57.3075 4070.82,-37.6906"/>
<polygon fill="black" stroke="black" points="4073.15,-40.3298 4079.35,-31.7389 4069.15,-34.588 4073.15,-40.3298"/>
</g>
<!-- 26&#45;&gt;12 -->
<g id="edge169" class="edge"><title>26&#45;&gt;12</title>
<path fill="none" stroke="black" d="M2274.23,-448.782C2359.59,-447.635 2629.28,-440.48 2847,-396 2948.21,-375.322 2970.42,-357.897 3068,-324 3155.27,-293.685 3178.95,-290.356 3263,-252 3323.44,-224.418 3339.27,-217.664 3394,-180 3458.63,-135.524 3527.1,-73.2108 3561.49,-40.6914"/>
<polygon fill="black" stroke="black" points="3564.25,-42.8964 3569.09,-33.4693 3559.43,-37.8234 3564.25,-42.8964"/>
</g>
<!-- 26&#45;&gt;13 -->
<g id="edge170" class="edge"><title>26&#45;&gt;13</title>
<path fill="none" stroke="black" d="M2274.07,-449.279C2366.07,-449.72 2674.8,-447.042 2923,-396 3087.23,-362.227 3525.28,-227.444 3739,-108 3772.65,-89.1938 3806.52,-60.2413 3827.84,-40.5023"/>
<polygon fill="black" stroke="black" points="3830.48,-42.8265 3835.37,-33.4286 3825.69,-37.7247 3830.48,-42.8265"/>
</g>
<!-- 26&#45;&gt;14 -->
<g id="edge171" class="edge"><title>26&#45;&gt;14</title>
<path fill="none" stroke="black" d="M2274.08,-448.414C2352.68,-446.262 2587.34,-436.634 2777,-396 2801.69,-390.711 3185.33,-263.1 3208,-252 3311.63,-201.273 3365.05,-207.184 3424,-108 3435,-89.4938 3436.42,-64.9002 3435.42,-46.2561"/>
<polygon fill="black" stroke="black" points="3438.89,-45.7463 3434.61,-36.0572 3431.92,-46.3044 3438.89,-45.7463"/>
</g>
<!-- 26&#45;&gt;15 -->
<g id="edge172" class="edge"><title>26&#45;&gt;15</title>
<path fill="none" stroke="black" d="M2220.05,-448.599C2080.61,-446.36 1444.48,-434.115 1366,-396 1220.38,-325.276 1203.05,-258.338 1143,-108 1134.99,-87.9537 1129.3,-64.1689 1125.71,-46.2327"/>
<polygon fill="black" stroke="black" points="1129.1,-45.333 1123.79,-36.164 1122.22,-46.6421 1129.1,-45.333"/>
</g>
<!-- 26&#45;&gt;16 -->
<g id="edge173" class="edge"><title>26&#45;&gt;16</title>
<path fill="none" stroke="black" d="M2219.96,-448.917C2098.69,-448.281 1604.46,-442.813 1458,-396 1399.84,-377.411 1371.15,-377.092 1341,-324 1284.57,-224.636 1308.52,-150.028 1392,-72 1432.64,-34.0141 1498.68,-23.0203 1539.88,-19.976"/>
<polygon fill="black" stroke="black" points="1540.28,-23.4582 1550.04,-19.3491 1539.85,-16.4715 1540.28,-23.4582"/>
</g>
<!-- 26&#45;&gt;17 -->
<g id="edge174" class="edge"><title>26&#45;&gt;17</title>
<path fill="none" stroke="black" d="M2220.2,-447.261C2078.69,-437.816 1422.86,-390.637 1365,-324 1256.44,-198.973 1556.1,-70.2129 1658.25,-31.0213"/>
<polygon fill="black" stroke="black" points="1659.67,-34.2271 1667.78,-27.4075 1657.19,-27.6823 1659.67,-34.2271"/>
</g>
<!-- 26&#45;&gt;18 -->
<g id="edge175" class="edge"><title>26&#45;&gt;18</title>
<path fill="none" stroke="black" d="M2274.16,-448.129C2324.6,-445.574 2435.14,-435.525 2518,-396 2540.5,-385.269 2539.1,-371.9 2561,-360 2608.8,-334.023 2626.15,-340.473 2678,-324 2971.75,-230.674 3156.15,-357.589 3337,-108 3346.39,-95.0436 3347.95,-83.667 3337,-72 3309.37,-42.5586 2699.03,-24.2407 2540.4,-19.9659"/>
<polygon fill="black" stroke="black" points="2540.28,-16.4616 2530.19,-19.6935 2540.1,-23.4591 2540.28,-16.4616"/>
</g>
<!-- 26&#45;&gt;19 -->
<g id="edge176" class="edge"><title>26&#45;&gt;19</title>
<path fill="none" stroke="black" d="M2273.67,-446.589C2318.22,-441.778 2409.79,-428.505 2480,-396 2504.2,-384.797 2504.17,-371.963 2528,-360 2578.53,-334.638 2612.11,-365.953 2650,-324 2704.22,-263.968 2730.47,-204.703 2677,-144 2635.1,-96.4281 2454.97,-125.358 2394,-108 2361.17,-98.6537 2275.26,-56.999 2229.2,-34.1402"/>
<polygon fill="black" stroke="black" points="2230.52,-30.8886 2220.01,-29.5661 2227.4,-37.1553 2230.52,-30.8886"/>
</g>
<!-- 26&#45;&gt;20 -->
<g id="edge177" class="edge"><title>26&#45;&gt;20</title>
<path fill="none" stroke="black" d="M2270.68,-440.722C2292.51,-432.177 2324.78,-417.114 2347,-396 2405.9,-340.029 2430.62,-278.749 2379,-216 2348.99,-179.521 2322.45,-198.541 2279,-180 2167.87,-132.571 2040.8,-65.5103 1984.5,-35.1042"/>
<polygon fill="black" stroke="black" points="1985.92,-31.891 1975.46,-30.206 1982.58,-38.0462 1985.92,-31.891"/>
</g>
<!-- 26&#45;&gt;21 -->
<g id="edge178" class="edge"><title>26&#45;&gt;21</title>
<path fill="none" stroke="black" d="M2239.47,-432.563C2222.51,-395.53 2181.21,-305.332 2160.8,-260.776"/>
<polygon fill="black" stroke="black" points="2163.9,-259.128 2156.55,-251.493 2157.53,-262.042 2163.9,-259.128"/>
</g>
<!-- 26&#45;&gt;22 -->
<g id="edge179" class="edge"><title>26&#45;&gt;22</title>
<path fill="none" stroke="black" d="M2221.67,-443.152C2175.17,-431.354 2076.81,-404.553 2024.74,-389.594"/>
<polygon fill="black" stroke="black" points="2025.55,-386.186 2014.98,-386.768 2023.61,-392.91 2025.55,-386.186"/>
</g>
<!-- 26&#45;&gt;23 -->
<g id="edge180" class="edge"><title>26&#45;&gt;23</title>
<path fill="none" stroke="black" d="M2244.92,-431.849C2240.42,-394.832 2229.77,-307.181 2224.33,-262.386"/>
<polygon fill="black" stroke="black" points="2227.77,-261.737 2223.09,-252.232 2220.83,-262.582 2227.77,-261.737"/>
</g>
<!-- 26&#45;&gt;24 -->
<g id="edge181" class="edge"><title>26&#45;&gt;24</title>
<path fill="none" stroke="black" d="M2224.11,-440.194C2185.45,-423.186 2105.72,-385.269 2036,-360 1987.64,-342.472 1930.52,-326.771 1894.89,-317.092"/>
<polygon fill="black" stroke="black" points="1895.56,-313.647 1884.99,-314.405 1893.72,-320.403 1895.56,-313.647"/>
</g>
<!-- 26&#45;&gt;25 -->
<g id="edge182" class="edge"><title>26&#45;&gt;25</title>
<path fill="none" stroke="black" d="M2250.69,-431.849C2258.68,-394.662 2277.66,-306.374 2287.25,-261.772"/>
<polygon fill="black" stroke="black" points="2290.68,-262.448 2289.36,-251.935 2283.84,-260.977 2290.68,-262.448"/>
</g>
<!-- 26&#45;&gt;26 -->
<g id="edge183" class="edge"><title>26&#45;&gt;26</title>
<path fill="none" stroke="black" d="M2266.9,-462.432C2279.69,-465.675 2292,-461.531 2292,-450 2292,-441.622 2285.5,-437.143 2277.04,-436.564"/>
<polygon fill="black" stroke="black" points="2276.5,-433.1 2266.9,-437.568 2277.19,-440.066 2276.5,-433.1"/>
</g>
<!-- 33 -->
<g id="node33" class="node"><title>33</title>
<ellipse fill="none" stroke="black" cx="2597" cy="-378" rx="27" ry="18"/>
<text text-anchor="middle" x="2597" y="-374.3" font-family="Times,serif" font-size="14.00">33</text>
</g>
<!-- 26&#45;&gt;33 -->
<g id="edge184" class="edge"><title>26&#45;&gt;33</title>
<path fill="none" stroke="black" d="M2273.49,-446.471C2327.48,-440.879 2453.78,-425.556 2556,-396 2559.18,-395.08 2562.45,-393.989 2565.69,-392.811"/>
<polygon fill="black" stroke="black" points="2567.15,-395.998 2575.19,-389.098 2564.61,-389.478 2567.15,-395.998"/>
</g>
<!-- 34 -->
<g id="node34" class="node"><title>34</title>
<ellipse fill="none" stroke="black" cx="2669" cy="-378" rx="27" ry="18"/>
<text text-anchor="middle" x="2669" y="-374.3" font-family="Times,serif" font-size="14.00">34</text>
</g>
<!-- 26&#45;&gt;34 -->
<g id="edge185" class="edge"><title>26&#45;&gt;34</title>
<path fill="none" stroke="black" d="M2274.27,-448.095C2338.23,-445.365 2502.35,-434.821 2633,-396 2634.94,-395.424 2636.9,-394.758 2638.86,-394.03"/>
<polygon fill="black" stroke="black" points="2640.61,-397.092 2648.49,-390 2637.91,-390.635 2640.61,-397.092"/>
</g>
<!-- 35 -->
<g id="node35" class="node"><title>35</title>
<ellipse fill="none" stroke="black" cx="2741" cy="-378" rx="27" ry="18"/>
<text text-anchor="middle" x="2741" y="-374.3" font-family="Times,serif" font-size="14.00">35</text>
</g>
<!-- 26&#45;&gt;35 -->
<g id="edge186" class="edge"><title>26&#45;&gt;35</title>
<path fill="none" stroke="black" d="M2274.18,-448.91C2346.02,-448.023 2546.26,-441.337 2705,-396 2706.94,-395.445 2708.91,-394.795 2710.88,-394.078"/>
<polygon fill="black" stroke="black" points="2712.61,-397.147 2720.51,-390.08 2709.93,-390.682 2712.61,-397.147"/>
</g>
<!-- 41 -->
<g id="node41" class="node"><title>41</title>
<ellipse fill="none" stroke="black" cx="3157" cy="-90" rx="27" ry="18"/>
<text text-anchor="middle" x="3157" y="-86.3" font-family="Times,serif" font-size="14.00">41</text>
</g>
<!-- 29&#45;&gt;41 -->
<g id="edge187" class="edge"><title>29&#45;&gt;41</title>
<path fill="none" stroke="black" d="M3002.35,-152.962C3030.69,-143.054 3079.78,-125.387 3121,-108 3122.81,-107.234 3124.67,-106.428 3126.54,-105.601"/>
<polygon fill="black" stroke="black" points="3128.17,-108.704 3135.81,-101.367 3125.26,-102.336 3128.17,-108.704"/>
</g>
<!-- 42 -->
<g id="node42" class="node"><title>42</title>
<ellipse fill="none" stroke="black" cx="3229" cy="-90" rx="27" ry="18"/>
<text text-anchor="middle" x="3229" y="-86.3" font-family="Times,serif" font-size="14.00">42</text>
</g>
<!-- 29&#45;&gt;42 -->
<g id="edge188" class="edge"><title>29&#45;&gt;42</title>
<path fill="none" stroke="black" d="M3004.85,-156.323C3045.57,-148.572 3126.83,-131.553 3193,-108 3194.9,-107.322 3196.84,-106.577 3198.79,-105.789"/>
<polygon fill="black" stroke="black" points="3200.6,-108.818 3208.36,-101.605 3197.79,-102.404 3200.6,-108.818"/>
</g>
<!-- 43 -->
<g id="node43" class="node"><title>43</title>
<ellipse fill="none" stroke="black" cx="3301" cy="-90" rx="27" ry="18"/>
<text text-anchor="middle" x="3301" y="-86.3" font-family="Times,serif" font-size="14.00">43</text>
</g>
<!-- 29&#45;&gt;43 -->
<g id="edge189" class="edge"><title>29&#45;&gt;43</title>
<path fill="none" stroke="black" d="M3005.59,-158.389C3056.79,-152.858 3172.25,-137.936 3265,-108 3266.92,-107.379 3268.88,-106.678 3270.83,-105.923"/>
<polygon fill="black" stroke="black" points="3272.61,-108.97 3280.43,-101.825 3269.86,-102.532 3272.61,-108.97"/>
</g>
<!-- 44 -->
<g id="node44" class="node"><title>44</title>
<ellipse fill="none" stroke="black" cx="2653" cy="-90" rx="27" ry="18"/>
<text text-anchor="middle" x="2653" y="-86.3" font-family="Times,serif" font-size="14.00">44</text>
</g>
<!-- 29&#45;&gt;44 -->
<g id="edge190" class="edge"><title>29&#45;&gt;44</title>
<path fill="none" stroke="black" d="M2957.65,-150.968C2951.43,-148.368 2944.54,-145.798 2938,-144 2830.18,-114.356 2796.07,-140.229 2689,-108 2687.06,-107.417 2685.1,-106.746 2683.14,-106.013"/>
<polygon fill="black" stroke="black" points="2684.1,-102.619 2673.52,-101.973 2681.39,-109.073 2684.1,-102.619"/>
</g>
<!-- 45 -->
<g id="node45" class="node"><title>45</title>
<ellipse fill="none" stroke="black" cx="2725" cy="-90" rx="27" ry="18"/>
<text text-anchor="middle" x="2725" y="-86.3" font-family="Times,serif" font-size="14.00">45</text>
</g>
<!-- 29&#45;&gt;45 -->
<g id="edge191" class="edge"><title>29&#45;&gt;45</title>
<path fill="none" stroke="black" d="M2957.16,-151.031C2951.04,-148.493 2944.34,-145.938 2938,-144 2861.23,-120.518 2837.18,-133.322 2761,-108 2759.08,-107.362 2757.13,-106.648 2755.18,-105.884"/>
<polygon fill="black" stroke="black" points="2756.16,-102.495 2745.59,-101.761 2753.4,-108.926 2756.16,-102.495"/>
</g>
<!-- 46 -->
<g id="node46" class="node"><title>46</title>
<ellipse fill="none" stroke="black" cx="2797" cy="-90" rx="27" ry="18"/>
<text text-anchor="middle" x="2797" y="-86.3" font-family="Times,serif" font-size="14.00">46</text>
</g>
<!-- 29&#45;&gt;46 -->
<g id="edge192" class="edge"><title>29&#45;&gt;46</title>
<path fill="none" stroke="black" d="M2956.97,-151.569C2950.86,-149.033 2944.2,-146.345 2938,-144 2891.86,-126.544 2878.71,-126.561 2833,-108 2831.17,-107.259 2829.31,-106.472 2827.44,-105.659"/>
<polygon fill="black" stroke="black" points="2828.7,-102.39 2818.15,-101.463 2825.82,-108.769 2828.7,-102.39"/>
</g>
<!-- 47 -->
<g id="node47" class="node"><title>47</title>
<ellipse fill="none" stroke="black" cx="2869" cy="-90" rx="27" ry="18"/>
<text text-anchor="middle" x="2869" y="-86.3" font-family="Times,serif" font-size="14.00">47</text>
</g>
<!-- 29&#45;&gt;47 -->
<g id="edge193" class="edge"><title>29&#45;&gt;47</title>
<path fill="none" stroke="black" d="M2959.84,-148.807C2942.33,-137.665 2916.24,-121.062 2896.51,-108.504"/>
<polygon fill="black" stroke="black" points="2898.26,-105.469 2887.94,-103.053 2894.5,-111.375 2898.26,-105.469"/>
</g>
<!-- 48 -->
<g id="node48" class="node"><title>48</title>
<ellipse fill="none" stroke="black" cx="2941" cy="-90" rx="27" ry="18"/>
<text text-anchor="middle" x="2941" y="-86.3" font-family="Times,serif" font-size="14.00">48</text>
</g>
<!-- 29&#45;&gt;48 -->
<g id="edge194" class="edge"><title>29&#45;&gt;48</title>
<path fill="none" stroke="black" d="M2970.19,-144.765C2965.58,-136.283 2959.84,-125.714 2954.68,-116.197"/>
<polygon fill="black" stroke="black" points="2957.61,-114.266 2949.77,-107.147 2951.46,-117.606 2957.61,-114.266"/>
</g>
<!-- 49 -->
<g id="node49" class="node"><title>49</title>
<ellipse fill="none" stroke="black" cx="3013" cy="-90" rx="27" ry="18"/>
<text text-anchor="middle" x="3013" y="-86.3" font-family="Times,serif" font-size="14.00">49</text>
</g>
<!-- 29&#45;&gt;49 -->
<g id="edge195" class="edge"><title>29&#45;&gt;49</title>
<path fill="none" stroke="black" d="M2986.89,-144.765C2990.9,-136.491 2995.89,-126.232 3000.42,-116.9"/>
<polygon fill="black" stroke="black" points="3003.7,-118.158 3004.92,-107.633 2997.4,-115.099 3003.7,-118.158"/>
</g>
<!-- 50 -->
<g id="node50" class="node"><title>50</title>
<ellipse fill="none" stroke="black" cx="3085" cy="-90" rx="27" ry="18"/>
<text text-anchor="middle" x="3085" y="-86.3" font-family="Times,serif" font-size="14.00">50</text>
</g>
<!-- 29&#45;&gt;50 -->
<g id="edge196" class="edge"><title>29&#45;&gt;50</title>
<path fill="none" stroke="black" d="M2997.46,-148.807C3014.16,-137.783 3038.95,-121.413 3057.89,-108.904"/>
<polygon fill="black" stroke="black" points="3059.98,-111.72 3066.39,-103.288 3056.12,-105.878 3059.98,-111.72"/>
</g>
</g>
</svg>
