<?xml version="1.0" encoding="UTF-8" standalone="no"?>
<!DOCTYPE svg PUBLIC "-//W3C//DTD SVG 1.1//EN"
 "http://www.w3.org/Graphics/SVG/1.1/DTD/svg11.dtd">
<!-- Generated by graphviz version 2.36.0 (20140111.2315)
 -->
<!-- Title: %3 Pages: 1 -->
<svg width="2222pt" height="188pt"
 viewBox="0.00 0.00 2222.00 188.00" xmlns="http://www.w3.org/2000/svg" xmlns:xlink="http://www.w3.org/1999/xlink">
<g id="graph0" class="graph" transform="scale(1 1) rotate(0) translate(4 184)">
<title>%3</title>
<polygon fill="white" stroke="none" points="-4,4 -4,-184 2218,-184 2218,4 -4,4"/>
<!-- 1 -->
<g id="node1" class="node"><title>1</title>
<ellipse fill="none" stroke="black" cx="1503" cy="-162" rx="27" ry="18"/>
<text text-anchor="middle" x="1503" y="-158.3" font-family="Times,serif" font-size="14.00">1</text>
</g>
<!-- 2 -->
<g id="node2" class="node"><title>2</title>
<ellipse fill="none" stroke="black" cx="819" cy="-90" rx="27" ry="18"/>
<text text-anchor="middle" x="819" y="-86.3" font-family="Times,serif" font-size="14.00">2</text>
</g>
<!-- 1&#45;&gt;2 -->
<g id="edge1" class="edge"><title>1&#45;&gt;2</title>
<path fill="none" stroke="black" d="M1476.01,-160.08C1369.08,-156.239 975.218,-140.16 855,-108 853.047,-107.478 851.07,-106.853 849.101,-106.155"/>
<polygon fill="black" stroke="black" points="850.037,-102.757 839.457,-102.206 847.385,-109.235 850.037,-102.757"/>
</g>
<!-- 3 -->
<g id="node3" class="node"><title>3</title>
<ellipse fill="none" stroke="black" cx="891" cy="-90" rx="27" ry="18"/>
<text text-anchor="middle" x="891" y="-86.3" font-family="Times,serif" font-size="14.00">3</text>
</g>
<!-- 1&#45;&gt;3 -->
<g id="edge2" class="edge"><title>1&#45;&gt;3</title>
<path fill="none" stroke="black" d="M1476.02,-159.765C1376.83,-155.032 1032.72,-136.857 927,-108 925.05,-107.468 923.075,-106.835 921.107,-106.132"/>
<polygon fill="black" stroke="black" points="922.047,-102.734 911.467,-102.168 919.385,-109.208 922.047,-102.734"/>
</g>
<!-- 4 -->
<g id="node4" class="node"><title>4</title>
<ellipse fill="none" stroke="black" cx="963" cy="-90" rx="27" ry="18"/>
<text text-anchor="middle" x="963" y="-86.3" font-family="Times,serif" font-size="14.00">4</text>
</g>
<!-- 1&#45;&gt;4 -->
<g id="edge3" class="edge"><title>1&#45;&gt;4</title>
<path fill="none" stroke="black" d="M1475.9,-161.31C1399.41,-161.519 1175.86,-157.515 999,-108 997.053,-107.455 995.081,-106.813 993.115,-106.102"/>
<polygon fill="black" stroke="black" points="994.059,-102.705 983.481,-102.119 991.385,-109.174 994.059,-102.705"/>
</g>
<!-- 5 -->
<g id="node5" class="node"><title>5</title>
<ellipse fill="none" stroke="black" cx="1035" cy="-90" rx="27" ry="18"/>
<text text-anchor="middle" x="1035" y="-86.3" font-family="Times,serif" font-size="14.00">5</text>
</g>
<!-- 1&#45;&gt;5 -->
<g id="edge4" class="edge"><title>1&#45;&gt;5</title>
<path fill="none" stroke="black" d="M1475.86,-160.648C1406.85,-159.119 1219.62,-150.998 1071,-108 1069.06,-107.438 1067.09,-106.783 1065.13,-106.062"/>
<polygon fill="black" stroke="black" points="1066.08,-102.667 1055.5,-102.054 1063.39,-109.129 1066.08,-102.667"/>
</g>
<!-- 6 -->
<g id="node6" class="node"><title>6</title>
<ellipse fill="none" stroke="black" cx="1107" cy="-90" rx="27" ry="18"/>
<text text-anchor="middle" x="1107" y="-86.3" font-family="Times,serif" font-size="14.00">6</text>
</g>
<!-- 1&#45;&gt;6 -->
<g id="edge5" class="edge"><title>1&#45;&gt;6</title>
<path fill="none" stroke="black" d="M1475.76,-159.726C1414.88,-156.291 1263.64,-144.483 1143,-108 1141.06,-107.415 1139.1,-106.741 1137.14,-106.008"/>
<polygon fill="black" stroke="black" points="1138.1,-102.614 1127.53,-101.964 1135.39,-109.066 1138.1,-102.614"/>
</g>
<!-- 7 -->
<g id="node7" class="node"><title>7</title>
<ellipse fill="none" stroke="black" cx="1179" cy="-90" rx="27" ry="18"/>
<text text-anchor="middle" x="1179" y="-86.3" font-family="Times,serif" font-size="14.00">7</text>
</g>
<!-- 1&#45;&gt;7 -->
<g id="edge6" class="edge"><title>1&#45;&gt;7</title>
<path fill="none" stroke="black" d="M1476.23,-158.416C1424.66,-152.929 1308.4,-138.081 1215,-108 1213.08,-107.38 1211.12,-106.68 1209.17,-105.926"/>
<polygon fill="black" stroke="black" points="1210.14,-102.535 1199.57,-101.83 1207.39,-108.974 1210.14,-102.535"/>
</g>
<!-- 8 -->
<g id="node8" class="node"><title>8</title>
<ellipse fill="none" stroke="black" cx="1251" cy="-90" rx="27" ry="18"/>
<text text-anchor="middle" x="1251" y="-86.3" font-family="Times,serif" font-size="14.00">8</text>
</g>
<!-- 1&#45;&gt;8 -->
<g id="edge7" class="edge"><title>1&#45;&gt;8</title>
<path fill="none" stroke="black" d="M1477.24,-156.418C1436.25,-148.741 1353.96,-131.753 1287,-108 1285.09,-107.324 1283.15,-106.581 1281.21,-105.794"/>
<polygon fill="black" stroke="black" points="1282.21,-102.409 1271.64,-101.613 1279.4,-108.823 1282.21,-102.409"/>
</g>
<!-- 9 -->
<g id="node9" class="node"><title>9</title>
<ellipse fill="none" stroke="black" cx="1323" cy="-90" rx="27" ry="18"/>
<text text-anchor="middle" x="1323" y="-86.3" font-family="Times,serif" font-size="14.00">9</text>
</g>
<!-- 1&#45;&gt;9 -->
<g id="edge8" class="edge"><title>1&#45;&gt;9</title>
<path fill="none" stroke="black" d="M1479.31,-153.002C1450.56,-143.135 1400.77,-125.507 1359,-108 1357.18,-107.238 1355.32,-106.436 1353.46,-105.611"/>
<polygon fill="black" stroke="black" points="1354.73,-102.345 1344.18,-101.383 1351.83,-108.715 1354.73,-102.345"/>
</g>
<!-- 10 -->
<g id="node10" class="node"><title>10</title>
<ellipse fill="none" stroke="black" cx="1395" cy="-90" rx="27" ry="18"/>
<text text-anchor="middle" x="1395" y="-86.3" font-family="Times,serif" font-size="14.00">10</text>
</g>
<!-- 1&#45;&gt;10 -->
<g id="edge9" class="edge"><title>1&#45;&gt;10</title>
<path fill="none" stroke="black" d="M1484.19,-148.807C1467,-137.665 1441.38,-121.062 1422.01,-108.504"/>
<polygon fill="black" stroke="black" points="1423.89,-105.555 1413.6,-103.053 1420.08,-111.429 1423.89,-105.555"/>
</g>
<!-- 11 -->
<g id="node11" class="node"><title>11</title>
<ellipse fill="none" stroke="black" cx="1467" cy="-90" rx="27" ry="18"/>
<text text-anchor="middle" x="1467" y="-86.3" font-family="Times,serif" font-size="14.00">11</text>
</g>
<!-- 1&#45;&gt;11 -->
<g id="edge10" class="edge"><title>1&#45;&gt;11</title>
<path fill="none" stroke="black" d="M1494.65,-144.765C1490.29,-136.283 1484.85,-125.714 1479.96,-116.197"/>
<polygon fill="black" stroke="black" points="1482.99,-114.439 1475.3,-107.147 1476.77,-117.641 1482.99,-114.439"/>
</g>
<!-- 12 -->
<g id="node12" class="node"><title>12</title>
<ellipse fill="none" stroke="black" cx="1539" cy="-90" rx="27" ry="18"/>
<text text-anchor="middle" x="1539" y="-86.3" font-family="Times,serif" font-size="14.00">12</text>
</g>
<!-- 1&#45;&gt;12 -->
<g id="edge11" class="edge"><title>1&#45;&gt;12</title>
<path fill="none" stroke="black" d="M1511.35,-144.765C1515.71,-136.283 1521.15,-125.714 1526.04,-116.197"/>
<polygon fill="black" stroke="black" points="1529.23,-117.641 1530.7,-107.147 1523.01,-114.439 1529.23,-117.641"/>
</g>
<!-- 13 -->
<g id="node13" class="node"><title>13</title>
<ellipse fill="none" stroke="black" cx="1611" cy="-90" rx="27" ry="18"/>
<text text-anchor="middle" x="1611" y="-86.3" font-family="Times,serif" font-size="14.00">13</text>
</g>
<!-- 1&#45;&gt;13 -->
<g id="edge12" class="edge"><title>1&#45;&gt;13</title>
<path fill="none" stroke="black" d="M1521.81,-148.807C1539,-137.665 1564.62,-121.062 1583.99,-108.504"/>
<polygon fill="black" stroke="black" points="1585.92,-111.429 1592.4,-103.053 1582.11,-105.555 1585.92,-111.429"/>
</g>
<!-- 14 -->
<g id="node14" class="node"><title>14</title>
<ellipse fill="none" stroke="black" cx="1683" cy="-90" rx="27" ry="18"/>
<text text-anchor="middle" x="1683" y="-86.3" font-family="Times,serif" font-size="14.00">14</text>
</g>
<!-- 1&#45;&gt;14 -->
<g id="edge13" class="edge"><title>1&#45;&gt;14</title>
<path fill="none" stroke="black" d="M1526.69,-153.002C1555.44,-143.135 1605.23,-125.507 1647,-108 1648.82,-107.238 1650.68,-106.436 1652.54,-105.611"/>
<polygon fill="black" stroke="black" points="1654.17,-108.715 1661.82,-101.383 1651.27,-102.345 1654.17,-108.715"/>
</g>
<!-- 15 -->
<g id="node15" class="node"><title>15</title>
<ellipse fill="none" stroke="black" cx="1755" cy="-90" rx="27" ry="18"/>
<text text-anchor="middle" x="1755" y="-86.3" font-family="Times,serif" font-size="14.00">15</text>
</g>
<!-- 1&#45;&gt;15 -->
<g id="edge14" class="edge"><title>1&#45;&gt;15</title>
<path fill="none" stroke="black" d="M1528.76,-156.418C1569.75,-148.741 1652.04,-131.753 1719,-108 1720.91,-107.324 1722.85,-106.581 1724.79,-105.794"/>
<polygon fill="black" stroke="black" points="1726.6,-108.823 1734.36,-101.613 1723.79,-102.409 1726.6,-108.823"/>
</g>
<!-- 16 -->
<g id="node16" class="node"><title>16</title>
<ellipse fill="none" stroke="black" cx="1827" cy="-90" rx="27" ry="18"/>
<text text-anchor="middle" x="1827" y="-86.3" font-family="Times,serif" font-size="14.00">16</text>
</g>
<!-- 1&#45;&gt;16 -->
<g id="edge15" class="edge"><title>1&#45;&gt;16</title>
<path fill="none" stroke="black" d="M1529.77,-158.416C1581.34,-152.929 1697.6,-138.081 1791,-108 1792.92,-107.38 1794.88,-106.68 1796.83,-105.926"/>
<polygon fill="black" stroke="black" points="1798.61,-108.974 1806.43,-101.83 1795.86,-102.535 1798.61,-108.974"/>
</g>
<!-- 17 -->
<g id="node17" class="node"><title>17</title>
<ellipse fill="none" stroke="black" cx="1899" cy="-90" rx="27" ry="18"/>
<text text-anchor="middle" x="1899" y="-86.3" font-family="Times,serif" font-size="14.00">17</text>
</g>
<!-- 1&#45;&gt;17 -->
<g id="edge16" class="edge"><title>1&#45;&gt;17</title>
<path fill="none" stroke="black" d="M1530.24,-159.726C1591.12,-156.291 1742.36,-144.483 1863,-108 1864.94,-107.415 1866.9,-106.741 1868.86,-106.008"/>
<polygon fill="black" stroke="black" points="1870.61,-109.066 1878.47,-101.964 1867.9,-102.614 1870.61,-109.066"/>
</g>
<!-- 18 -->
<g id="node18" class="node"><title>18</title>
<ellipse fill="none" stroke="black" cx="1971" cy="-90" rx="27" ry="18"/>
<text text-anchor="middle" x="1971" y="-86.3" font-family="Times,serif" font-size="14.00">18</text>
</g>
<!-- 1&#45;&gt;18 -->
<g id="edge17" class="edge"><title>1&#45;&gt;18</title>
<path fill="none" stroke="black" d="M1530.14,-160.648C1599.15,-159.119 1786.38,-150.998 1935,-108 1936.94,-107.438 1938.91,-106.783 1940.87,-106.062"/>
<polygon fill="black" stroke="black" points="1942.61,-109.129 1950.5,-102.054 1939.92,-102.667 1942.61,-109.129"/>
</g>
<!-- 19 -->
<g id="node19" class="node"><title>19</title>
<ellipse fill="none" stroke="black" cx="2043" cy="-90" rx="27" ry="18"/>
<text text-anchor="middle" x="2043" y="-86.3" font-family="Times,serif" font-size="14.00">19</text>
</g>
<!-- 1&#45;&gt;19 -->
<g id="edge18" class="edge"><title>1&#45;&gt;19</title>
<path fill="none" stroke="black" d="M1530.1,-161.31C1606.59,-161.519 1830.14,-157.515 2007,-108 2008.95,-107.455 2010.92,-106.813 2012.88,-106.102"/>
<polygon fill="black" stroke="black" points="2014.62,-109.174 2022.52,-102.119 2011.94,-102.705 2014.62,-109.174"/>
</g>
<!-- 20 -->
<g id="node20" class="node"><title>20</title>
<ellipse fill="none" stroke="black" cx="2115" cy="-90" rx="27" ry="18"/>
<text text-anchor="middle" x="2115" y="-86.3" font-family="Times,serif" font-size="14.00">20</text>
</g>
<!-- 1&#45;&gt;20 -->
<g id="edge19" class="edge"><title>1&#45;&gt;20</title>
<path fill="none" stroke="black" d="M1529.98,-159.765C1629.17,-155.032 1973.28,-136.857 2079,-108 2080.95,-107.468 2082.92,-106.835 2084.89,-106.132"/>
<polygon fill="black" stroke="black" points="2086.62,-109.208 2094.53,-102.168 2083.95,-102.734 2086.62,-109.208"/>
</g>
<!-- 21 -->
<g id="node21" class="node"><title>21</title>
<ellipse fill="none" stroke="black" cx="2187" cy="-90" rx="27" ry="18"/>
<text text-anchor="middle" x="2187" y="-86.3" font-family="Times,serif" font-size="14.00">21</text>
</g>
<!-- 1&#45;&gt;21 -->
<g id="edge20" class="edge"><title>1&#45;&gt;21</title>
<path fill="none" stroke="black" d="M1529.99,-160.08C1636.92,-156.239 2030.78,-140.16 2151,-108 2152.95,-107.478 2154.93,-106.853 2156.9,-106.155"/>
<polygon fill="black" stroke="black" points="2158.62,-109.235 2166.54,-102.206 2155.96,-102.757 2158.62,-109.235"/>
</g>
<!-- 22 -->
<g id="node22" class="node"><title>22</title>
<ellipse fill="none" stroke="black" cx="27" cy="-18" rx="27" ry="18"/>
<text text-anchor="middle" x="27" y="-14.3" font-family="Times,serif" font-size="14.00">22</text>
</g>
<!-- 5&#45;&gt;22 -->
<g id="edge21" class="edge"><title>5&#45;&gt;22</title>
<path fill="none" stroke="black" d="M1014.97,-77.8052C1009.9,-75.466 1004.37,-73.3134 999,-72 594.606,26.881 467.394,-134.881 63,-36 60.8179,-35.4665 58.6097,-34.7944 56.4171,-34.0276"/>
<polygon fill="black" stroke="black" points="57.6152,-30.7363 47.0342,-30.1948 54.9681,-37.2165 57.6152,-30.7363"/>
</g>
<!-- 23 -->
<g id="node23" class="node"><title>23</title>
<ellipse fill="none" stroke="black" cx="99" cy="-18" rx="27" ry="18"/>
<text text-anchor="middle" x="99" y="-14.3" font-family="Times,serif" font-size="14.00">23</text>
</g>
<!-- 5&#45;&gt;23 -->
<g id="edge22" class="edge"><title>5&#45;&gt;23</title>
<path fill="none" stroke="black" d="M1014.96,-77.8173C1009.9,-75.4778 1004.37,-73.3219 999,-72 625.812,19.8837 508.188,-127.884 135,-36 132.819,-35.463 130.611,-34.7883 128.419,-34.0196"/>
<polygon fill="black" stroke="black" points="129.618,-30.7285 119.037,-30.1827 126.968,-37.2076 129.618,-30.7285"/>
</g>
<!-- 24 -->
<g id="node24" class="node"><title>24</title>
<ellipse fill="none" stroke="black" cx="171" cy="-18" rx="27" ry="18"/>
<text text-anchor="middle" x="171" y="-14.3" font-family="Times,serif" font-size="14.00">24</text>
</g>
<!-- 5&#45;&gt;24 -->
<g id="edge23" class="edge"><title>5&#45;&gt;24</title>
<path fill="none" stroke="black" d="M1014.96,-77.8317C1009.89,-75.4918 1004.37,-73.3321 999,-72 657.014,12.8872 548.986,-120.887 207,-36 204.82,-35.4588 202.613,-34.7811 200.421,-34.0102"/>
<polygon fill="black" stroke="black" points="201.621,-30.7194 191.041,-30.1683 198.968,-37.1972 201.621,-30.7194"/>
</g>
<!-- 25 -->
<g id="node25" class="node"><title>25</title>
<ellipse fill="none" stroke="black" cx="243" cy="-18" rx="27" ry="18"/>
<text text-anchor="middle" x="243" y="-14.3" font-family="Times,serif" font-size="14.00">25</text>
</g>
<!-- 5&#45;&gt;25 -->
<g id="edge24" class="edge"><title>5&#45;&gt;25</title>
<path fill="none" stroke="black" d="M1014.95,-77.849C1009.89,-75.5085 1004.36,-73.3443 999,-72 688.213,5.89182 589.787,-113.892 279,-36 276.821,-35.4539 274.615,-34.7725 272.424,-33.9989"/>
<polygon fill="black" stroke="black" points="273.625,-30.7085 263.045,-30.151 270.968,-37.1847 273.625,-30.7085"/>
</g>
<!-- 26 -->
<g id="node26" class="node"><title>26</title>
<ellipse fill="none" stroke="black" cx="315" cy="-18" rx="27" ry="18"/>
<text text-anchor="middle" x="315" y="-14.3" font-family="Times,serif" font-size="14.00">26</text>
</g>
<!-- 5&#45;&gt;26 -->
<g id="edge25" class="edge"><title>5&#45;&gt;26</title>
<path fill="none" stroke="black" d="M1014.95,-77.87C1009.89,-75.5289 1004.36,-73.3591 999,-72 719.405,-1.1021 630.595,-106.898 351,-36 348.823,-35.4479 346.618,-34.7619 344.428,-33.9851"/>
<polygon fill="black" stroke="black" points="345.63,-30.6952 335.05,-30.13 342.968,-37.1694 345.63,-30.6952"/>
</g>
<!-- 27 -->
<g id="node27" class="node"><title>27</title>
<ellipse fill="none" stroke="black" cx="387" cy="-18" rx="27" ry="18"/>
<text text-anchor="middle" x="387" y="-14.3" font-family="Times,serif" font-size="14.00">27</text>
</g>
<!-- 5&#45;&gt;27 -->
<g id="edge26" class="edge"><title>5&#45;&gt;27</title>
<path fill="none" stroke="black" d="M1014.94,-77.8963C1009.88,-75.5544 1004.36,-73.3776 999,-72 750.589,-8.09397 671.411,-99.906 423,-36 420.824,-35.4403 418.621,-34.7488 416.432,-33.9678"/>
<polygon fill="black" stroke="black" points="417.636,-30.6786 407.057,-30.1037 414.969,-37.1504 417.636,-30.6786"/>
</g>
<!-- 28 -->
<g id="node28" class="node"><title>28</title>
<ellipse fill="none" stroke="black" cx="459" cy="-18" rx="27" ry="18"/>
<text text-anchor="middle" x="459" y="-14.3" font-family="Times,serif" font-size="14.00">28</text>
</g>
<!-- 5&#45;&gt;28 -->
<g id="edge27" class="edge"><title>5&#45;&gt;28</title>
<path fill="none" stroke="black" d="M1014.93,-77.9301C1009.87,-75.5871 1004.35,-73.4014 999,-72 781.762,-15.0829 712.238,-92.9171 495,-36 492.827,-35.4307 490.626,-34.7319 488.438,-33.9457"/>
<polygon fill="black" stroke="black" points="489.644,-30.6573 479.066,-30.0699 486.969,-37.1259 489.644,-30.6573"/>
</g>
<!-- 29 -->
<g id="node29" class="node"><title>29</title>
<ellipse fill="none" stroke="black" cx="531" cy="-18" rx="27" ry="18"/>
<text text-anchor="middle" x="531" y="-14.3" font-family="Times,serif" font-size="14.00">29</text>
</g>
<!-- 5&#45;&gt;29 -->
<g id="edge28" class="edge"><title>5&#45;&gt;29</title>
<path fill="none" stroke="black" d="M1014.54,-77.7994C1009.58,-75.5212 1004.21,-73.3972 999,-72 812.917,-22.0673 753.083,-85.9327 567,-36 565.047,-35.476 563.071,-34.8499 561.102,-34.1517"/>
<polygon fill="black" stroke="black" points="562.039,-30.7533 551.458,-30.2006 559.385,-37.2307 562.039,-30.7533"/>
</g>
<!-- 30 -->
<g id="node30" class="node"><title>30</title>
<ellipse fill="none" stroke="black" cx="603" cy="-18" rx="27" ry="18"/>
<text text-anchor="middle" x="603" y="-14.3" font-family="Times,serif" font-size="14.00">30</text>
</g>
<!-- 5&#45;&gt;30 -->
<g id="edge29" class="edge"><title>5&#45;&gt;30</title>
<path fill="none" stroke="black" d="M1014.52,-77.8617C1009.57,-75.581 1004.2,-73.4402 999,-72 844.046,-29.0444 793.954,-78.9556 639,-36 637.052,-35.4599 635.079,-34.8213 633.112,-34.1138"/>
<polygon fill="black" stroke="black" points="634.054,-30.7164 623.475,-30.1383 631.385,-37.1874 634.054,-30.7164"/>
</g>
<!-- 31 -->
<g id="node31" class="node"><title>31</title>
<ellipse fill="none" stroke="black" cx="675" cy="-18" rx="27" ry="18"/>
<text text-anchor="middle" x="675" y="-14.3" font-family="Times,serif" font-size="14.00">31</text>
</g>
<!-- 5&#45;&gt;31 -->
<g id="edge30" class="edge"><title>5&#45;&gt;31</title>
<path fill="none" stroke="black" d="M1014.5,-77.9545C1009.54,-75.67 1004.18,-73.5042 999,-72 875.127,-36.0083 834.873,-71.9917 711,-36 709.059,-35.4359 707.091,-34.7788 705.128,-34.0573"/>
<polygon fill="black" stroke="black" points="706.079,-30.6616 695.502,-30.0455 703.386,-37.123 706.079,-30.6616"/>
</g>
<!-- 32 -->
<g id="node32" class="node"><title>32</title>
<ellipse fill="none" stroke="black" cx="747" cy="-18" rx="27" ry="18"/>
<text text-anchor="middle" x="747" y="-14.3" font-family="Times,serif" font-size="14.00">32</text>
</g>
<!-- 5&#45;&gt;32 -->
<g id="edge31" class="edge"><title>5&#45;&gt;32</title>
<path fill="none" stroke="black" d="M1014.45,-78.1072C1009.5,-75.8164 1004.15,-73.6095 999,-72 906.114,-42.9447 875.886,-65.0553 783,-36 781.07,-35.3964 779.112,-34.7089 777.156,-33.9644"/>
<polygon fill="black" stroke="black" points="778.121,-30.5719 767.548,-29.8928 775.39,-37.0171 778.121,-30.5719"/>
</g>
<!-- 33 -->
<g id="node33" class="node"><title>33</title>
<ellipse fill="none" stroke="black" cx="819" cy="-18" rx="27" ry="18"/>
<text text-anchor="middle" x="819" y="-14.3" font-family="Times,serif" font-size="14.00">33</text>
</g>
<!-- 5&#45;&gt;33 -->
<g id="edge32" class="edge"><title>5&#45;&gt;33</title>
<path fill="none" stroke="black" d="M1013.97,-78.2261C1009.13,-75.9832 1003.95,-73.767 999,-72 936.875,-49.8086 917.125,-58.1914 855,-36 853.145,-35.3374 851.257,-34.6116 849.366,-33.8449"/>
<polygon fill="black" stroke="black" points="850.594,-30.5622 840.028,-29.7739 847.796,-36.9789 850.594,-30.5622"/>
</g>
<!-- 34 -->
<g id="node34" class="node"><title>34</title>
<ellipse fill="none" stroke="black" cx="891" cy="-18" rx="27" ry="18"/>
<text text-anchor="middle" x="891" y="-14.3" font-family="Times,serif" font-size="14.00">34</text>
</g>
<!-- 5&#45;&gt;34 -->
<g id="edge33" class="edge"><title>5&#45;&gt;34</title>
<path fill="none" stroke="black" d="M1013.75,-78.6713C989.398,-66.8324 949.281,-47.3312 921.572,-33.8615"/>
<polygon fill="black" stroke="black" points="922.859,-30.5953 912.335,-29.3711 919.798,-36.8909 922.859,-30.5953"/>
</g>
<!-- 35 -->
<g id="node35" class="node"><title>35</title>
<ellipse fill="none" stroke="black" cx="963" cy="-18" rx="27" ry="18"/>
<text text-anchor="middle" x="963" y="-14.3" font-family="Times,serif" font-size="14.00">35</text>
</g>
<!-- 5&#45;&gt;35 -->
<g id="edge34" class="edge"><title>5&#45;&gt;35</title>
<path fill="none" stroke="black" d="M1020.43,-74.8345C1010.25,-64.9376 996.476,-51.5462 984.969,-40.3591"/>
<polygon fill="black" stroke="black" points="987.405,-37.8461 977.796,-33.3847 982.526,-42.865 987.405,-37.8461"/>
</g>
<!-- 36 -->
<g id="node36" class="node"><title>36</title>
<ellipse fill="none" stroke="black" cx="1035" cy="-18" rx="27" ry="18"/>
<text text-anchor="middle" x="1035" y="-14.3" font-family="Times,serif" font-size="14.00">36</text>
</g>
<!-- 5&#45;&gt;36 -->
<g id="edge35" class="edge"><title>5&#45;&gt;36</title>
<path fill="none" stroke="black" d="M1035,-71.6966C1035,-63.9827 1035,-54.7125 1035,-46.1124"/>
<polygon fill="black" stroke="black" points="1038.5,-46.1043 1035,-36.1043 1031.5,-46.1044 1038.5,-46.1043"/>
</g>
<!-- 37 -->
<g id="node37" class="node"><title>37</title>
<ellipse fill="none" stroke="black" cx="1107" cy="-18" rx="27" ry="18"/>
<text text-anchor="middle" x="1107" y="-14.3" font-family="Times,serif" font-size="14.00">37</text>
</g>
<!-- 5&#45;&gt;37 -->
<g id="edge36" class="edge"><title>5&#45;&gt;37</title>
<path fill="none" stroke="black" d="M1049.57,-74.8345C1059.75,-64.9376 1073.52,-51.5462 1085.03,-40.3591"/>
<polygon fill="black" stroke="black" points="1087.47,-42.865 1092.2,-33.3847 1082.59,-37.8461 1087.47,-42.865"/>
</g>
<!-- 38 -->
<g id="node38" class="node"><title>38</title>
<ellipse fill="none" stroke="black" cx="1179" cy="-18" rx="27" ry="18"/>
<text text-anchor="middle" x="1179" y="-14.3" font-family="Times,serif" font-size="14.00">38</text>
</g>
<!-- 5&#45;&gt;38 -->
<g id="edge37" class="edge"><title>5&#45;&gt;38</title>
<path fill="none" stroke="black" d="M1056.25,-78.6713C1080.6,-66.8324 1120.72,-47.3312 1148.43,-33.8615"/>
<polygon fill="black" stroke="black" points="1150.2,-36.8909 1157.67,-29.3711 1147.14,-30.5953 1150.2,-36.8909"/>
</g>
<!-- 39 -->
<g id="node39" class="node"><title>39</title>
<ellipse fill="none" stroke="black" cx="1251" cy="-18" rx="27" ry="18"/>
<text text-anchor="middle" x="1251" y="-14.3" font-family="Times,serif" font-size="14.00">39</text>
</g>
<!-- 5&#45;&gt;39 -->
<g id="edge38" class="edge"><title>5&#45;&gt;39</title>
<path fill="none" stroke="black" d="M1056.03,-78.2261C1060.87,-75.9832 1066.05,-73.767 1071,-72 1133.13,-49.8086 1152.87,-58.1914 1215,-36 1216.86,-35.3374 1218.74,-34.6116 1220.63,-33.8449"/>
<polygon fill="black" stroke="black" points="1222.2,-36.9789 1229.97,-29.7739 1219.41,-30.5622 1222.2,-36.9789"/>
</g>
<!-- 40 -->
<g id="node40" class="node"><title>40</title>
<ellipse fill="none" stroke="black" cx="1323" cy="-18" rx="27" ry="18"/>
<text text-anchor="middle" x="1323" y="-14.3" font-family="Times,serif" font-size="14.00">40</text>
</g>
<!-- 5&#45;&gt;40 -->
<g id="edge39" class="edge"><title>5&#45;&gt;40</title>
<path fill="none" stroke="black" d="M1055.55,-78.1072C1060.5,-75.8164 1065.85,-73.6095 1071,-72 1163.89,-42.9447 1194.11,-65.0553 1287,-36 1288.93,-35.3964 1290.89,-34.7089 1292.84,-33.9644"/>
<polygon fill="black" stroke="black" points="1294.61,-37.0171 1302.45,-29.8928 1291.88,-30.5719 1294.61,-37.0171"/>
</g>
<!-- 41 -->
<g id="node41" class="node"><title>41</title>
<ellipse fill="none" stroke="black" cx="1395" cy="-18" rx="27" ry="18"/>
<text text-anchor="middle" x="1395" y="-14.3" font-family="Times,serif" font-size="14.00">41</text>
</g>
<!-- 5&#45;&gt;41 -->
<g id="edge40" class="edge"><title>5&#45;&gt;41</title>
<path fill="none" stroke="black" d="M1055.5,-77.9545C1060.46,-75.67 1065.82,-73.5042 1071,-72 1194.87,-36.0083 1235.13,-71.9917 1359,-36 1360.94,-35.4359 1362.91,-34.7788 1364.87,-34.0573"/>
<polygon fill="black" stroke="black" points="1366.61,-37.123 1374.5,-30.0455 1363.92,-30.6616 1366.61,-37.123"/>
</g>
<!-- 42 -->
<g id="node42" class="node"><title>42</title>
<ellipse fill="none" stroke="black" cx="1467" cy="-18" rx="27" ry="18"/>
<text text-anchor="middle" x="1467" y="-14.3" font-family="Times,serif" font-size="14.00">42</text>
</g>
<!-- 5&#45;&gt;42 -->
<g id="edge41" class="edge"><title>5&#45;&gt;42</title>
<path fill="none" stroke="black" d="M1055.48,-77.8617C1060.43,-75.581 1065.8,-73.4402 1071,-72 1225.95,-29.0444 1276.05,-78.9556 1431,-36 1432.95,-35.4599 1434.92,-34.8213 1436.89,-34.1138"/>
<polygon fill="black" stroke="black" points="1438.62,-37.1874 1446.52,-30.1383 1435.95,-30.7164 1438.62,-37.1874"/>
</g>
<!-- 43 -->
<g id="node43" class="node"><title>43</title>
<ellipse fill="none" stroke="black" cx="1539" cy="-18" rx="27" ry="18"/>
<text text-anchor="middle" x="1539" y="-14.3" font-family="Times,serif" font-size="14.00">43</text>
</g>
<!-- 5&#45;&gt;43 -->
<g id="edge42" class="edge"><title>5&#45;&gt;43</title>
<path fill="none" stroke="black" d="M1055.46,-77.7994C1060.42,-75.5212 1065.79,-73.3972 1071,-72 1257.08,-22.0673 1316.92,-85.9327 1503,-36 1504.95,-35.476 1506.93,-34.8499 1508.9,-34.1517"/>
<polygon fill="black" stroke="black" points="1510.62,-37.2307 1518.54,-30.2006 1507.96,-30.7533 1510.62,-37.2307"/>
</g>
<!-- 44 -->
<g id="node44" class="node"><title>44</title>
<ellipse fill="none" stroke="black" cx="1611" cy="-18" rx="27" ry="18"/>
<text text-anchor="middle" x="1611" y="-14.3" font-family="Times,serif" font-size="14.00">44</text>
</g>
<!-- 5&#45;&gt;44 -->
<g id="edge43" class="edge"><title>5&#45;&gt;44</title>
<path fill="none" stroke="black" d="M1055.07,-77.9301C1060.13,-75.5871 1065.65,-73.4014 1071,-72 1288.24,-15.0829 1357.76,-92.9171 1575,-36 1577.17,-35.4307 1579.37,-34.7319 1581.56,-33.9457"/>
<polygon fill="black" stroke="black" points="1583.03,-37.1259 1590.93,-30.0699 1580.36,-30.6573 1583.03,-37.1259"/>
</g>
<!-- 45 -->
<g id="node45" class="node"><title>45</title>
<ellipse fill="none" stroke="black" cx="1683" cy="-18" rx="27" ry="18"/>
<text text-anchor="middle" x="1683" y="-14.3" font-family="Times,serif" font-size="14.00">45</text>
</g>
<!-- 5&#45;&gt;45 -->
<g id="edge44" class="edge"><title>5&#45;&gt;45</title>
<path fill="none" stroke="black" d="M1055.06,-77.8963C1060.12,-75.5544 1065.64,-73.3776 1071,-72 1319.41,-8.09397 1398.59,-99.906 1647,-36 1649.18,-35.4403 1651.38,-34.7488 1653.57,-33.9678"/>
<polygon fill="black" stroke="black" points="1655.03,-37.1504 1662.94,-30.1037 1652.36,-30.6786 1655.03,-37.1504"/>
</g>
<!-- 46 -->
<g id="node46" class="node"><title>46</title>
<ellipse fill="none" stroke="black" cx="1755" cy="-18" rx="27" ry="18"/>
<text text-anchor="middle" x="1755" y="-14.3" font-family="Times,serif" font-size="14.00">46</text>
</g>
<!-- 5&#45;&gt;46 -->
<g id="edge45" class="edge"><title>5&#45;&gt;46</title>
<path fill="none" stroke="black" d="M1055.05,-77.87C1060.11,-75.5289 1065.64,-73.3591 1071,-72 1350.6,-1.1021 1439.4,-106.898 1719,-36 1721.18,-35.4479 1723.38,-34.7619 1725.57,-33.9851"/>
<polygon fill="black" stroke="black" points="1727.03,-37.1694 1734.95,-30.13 1724.37,-30.6952 1727.03,-37.1694"/>
</g>
<!-- 47 -->
<g id="node47" class="node"><title>47</title>
<ellipse fill="none" stroke="black" cx="1827" cy="-18" rx="27" ry="18"/>
<text text-anchor="middle" x="1827" y="-14.3" font-family="Times,serif" font-size="14.00">47</text>
</g>
<!-- 5&#45;&gt;47 -->
<g id="edge46" class="edge"><title>5&#45;&gt;47</title>
<path fill="none" stroke="black" d="M1055.05,-77.849C1060.11,-75.5085 1065.64,-73.3443 1071,-72 1381.79,5.89182 1480.21,-113.892 1791,-36 1793.18,-35.4539 1795.38,-34.7725 1797.58,-33.9989"/>
<polygon fill="black" stroke="black" points="1799.03,-37.1847 1806.95,-30.151 1796.37,-30.7085 1799.03,-37.1847"/>
</g>
<!-- 48 -->
<g id="node48" class="node"><title>48</title>
<ellipse fill="none" stroke="black" cx="1899" cy="-18" rx="27" ry="18"/>
<text text-anchor="middle" x="1899" y="-14.3" font-family="Times,serif" font-size="14.00">48</text>
</g>
<!-- 5&#45;&gt;48 -->
<g id="edge47" class="edge"><title>5&#45;&gt;48</title>
<path fill="none" stroke="black" d="M1055.04,-77.8317C1060.11,-75.4918 1065.63,-73.3321 1071,-72 1412.99,12.8872 1521.01,-120.887 1863,-36 1865.18,-35.4588 1867.39,-34.7811 1869.58,-34.0102"/>
<polygon fill="black" stroke="black" points="1871.03,-37.1972 1878.96,-30.1683 1868.38,-30.7194 1871.03,-37.1972"/>
</g>
<!-- 49 -->
<g id="node49" class="node"><title>49</title>
<ellipse fill="none" stroke="black" cx="1971" cy="-18" rx="27" ry="18"/>
<text text-anchor="middle" x="1971" y="-14.3" font-family="Times,serif" font-size="14.00">49</text>
</g>
<!-- 5&#45;&gt;49 -->
<g id="edge48" class="edge"><title>5&#45;&gt;49</title>
<path fill="none" stroke="black" d="M1055.04,-77.8173C1060.1,-75.4778 1065.63,-73.3219 1071,-72 1444.19,19.8837 1561.81,-127.884 1935,-36 1937.18,-35.463 1939.39,-34.7883 1941.58,-34.0196"/>
<polygon fill="black" stroke="black" points="1943.03,-37.2076 1950.96,-30.1827 1940.38,-30.7285 1943.03,-37.2076"/>
</g>
<!-- 50 -->
<g id="node50" class="node"><title>50</title>
<ellipse fill="none" stroke="black" cx="2043" cy="-18" rx="27" ry="18"/>
<text text-anchor="middle" x="2043" y="-14.3" font-family="Times,serif" font-size="14.00">50</text>
</g>
<!-- 5&#45;&gt;50 -->
<g id="edge49" class="edge"><title>5&#45;&gt;50</title>
<path fill="none" stroke="black" d="M1055.03,-77.8052C1060.1,-75.466 1065.63,-73.3134 1071,-72 1475.39,26.881 1602.61,-134.881 2007,-36 2009.18,-35.4665 2011.39,-34.7944 2013.58,-34.0276"/>
<polygon fill="black" stroke="black" points="2015.03,-37.2165 2022.97,-30.1948 2012.38,-30.7363 2015.03,-37.2165"/>
</g>
</g>
</svg>
